<svg width="216" height="103" viewBox="0 0 216 103" fill="none" xmlns="http://www.w3.org/2000/svg">
<path d="M57 67.5132C36.2 41.5132 13.6667 35.6799 5 36.0132V97.5132C27.8 97.5132 49.1667 77.5132 57 67.5132ZM57 67.5132C72.8333 90.0133 115.2 121.513 158 67.5132C144.667 48.5132 108.8 18.6132 72 51.0132" stroke="#2C2C2C" stroke-width="9"/>
<circle cx="140.5" cy="67.5" r="3.5" fill="#2C2C2C"/>
<path d="M159 34.9984C179.8 60.9971 202.333 66.8301 211 66.4968V5.00001C188.2 5.00001 166.833 24.999 159 34.9984ZM159 34.9984C143.167 12.4996 100.8 -18.9987 58 34.9984C71.3333 53.9974 107.2 83.8958 144 51.4976" stroke="#2C2C2C" stroke-width="9"/>
<ellipse cx="77.5" cy="32.4997" rx="3.5" ry="3.49982" transform="rotate(-180 77.5 32.4997)" fill="#2C2C2C"/>
</svg>
