<svg width="212" height="99" viewBox="0 0 212 99" fill="none" xmlns="http://www.w3.org/2000/svg">
<path d="M55 65.5132C34.2 39.5132 11.6667 33.6799 3 34.0132V95.5132C25.8 95.5132 47.1667 75.5132 55 65.5132ZM55 65.5132C70.8333 88.0133 113.2 119.513 156 65.5132C142.667 46.5132 106.8 16.6132 70 49.0132" stroke="#2C2C2C" stroke-width="6"/>
<circle cx="138.5" cy="65.5" r="3.5" fill="#2C2C2C"/>
<path d="M157 32.9984C177.8 58.9971 200.333 64.8301 209 64.4968V3.00001C186.2 3.00001 164.833 22.999 157 32.9984ZM157 32.9984C141.167 10.4996 98.8 -20.9987 56 32.9984C69.3333 51.9974 105.2 81.8958 142 49.4976" stroke="#2C2C2C" stroke-width="6"/>
<ellipse cx="75.5" cy="30.4998" rx="3.5" ry="3.49982" transform="rotate(-180 75.5 30.4998)" fill="#2C2C2C"/>
</svg>
