<svg id="Layer_1" height="512" viewBox="0 0 128 128" width="512" xmlns="http://www.w3.org/2000/svg" data-name="Layer 1"><path d="m12 27.751h104v72.497h-104z" fill="#f0f0f0"/><path d="m12 27.751h104v24.166h-104z" fill="#d60a2e"/><path d="m12 76.083h104v24.166h-104z" fill="#d60a2e"/><path d="m106.583 29.5h.917a1.75 1.75 0 0 0 0-3.5h-.917a1.75 1.75 0 0 0 0 3.5z"/><path d="m12 94.583a1.75 1.75 0 0 0 1.75-1.75v-1.333a1.75 1.75 0 0 0 -3.5 0v1.333a1.75 1.75 0 0 0 1.75 1.75z"/><path d="m116 26a1.749 1.749 0 0 0 -1.75 1.75v22.417h-94.083a1.75 1.75 0 0 0 0 3.5h94.083v20.666h-100.5v-44.833h85.667a1.75 1.75 0 0 0 0-3.5h-87.417a1.75 1.75 0 0 0 -1.75 1.75v57a1.75 1.75 0 0 0 3.5 0v-6.917h100.5v20.667h-102.25a1.75 1.75 0 0 0 0 3.5h104a1.749 1.749 0 0 0 1.75-1.75v-72.5a1.749 1.749 0 0 0 -1.75-1.75z"/></svg>