<svg id="Layer_1" height="512" viewBox="0 0 128 128" width="512" xmlns="http://www.w3.org/2000/svg" data-name="Layer 1"><path d="m12 27.751h104v72.497h-104z" fill="#fed953"/><path d="m81.333 27.751h34.667v72.497h-34.667z" fill="#b80016"/><path d="m12 27.751h34.667v72.497h-34.667z" fill="#191f1e"/><path d="m108.208 29.5h.625a1.75 1.75 0 0 0 0-3.5h-.625a1.75 1.75 0 0 0 0 3.5z"/><path d="m12 94.75a1.75 1.75 0 0 0 1.75-1.75v-1.75a1.75 1.75 0 0 0 -3.5 0v1.75a1.75 1.75 0 0 0 1.75 1.75z"/><path d="m116 26a1.75 1.75 0 0 0 -1.75 1.75v70.75h-31.167v-69h18.084a1.75 1.75 0 0 0 0-3.5h-89.167a1.75 1.75 0 0 0 -1.75 1.75v56.125a1.75 1.75 0 0 0 3.5 0v-54.375h65.833v69h-31.166v-62a1.75 1.75 0 0 0 -3.5 0v62h-32.917a1.75 1.75 0 0 0 0 3.5h104a1.75 1.75 0 0 0 1.75-1.75v-72.5a1.75 1.75 0 0 0 -1.75-1.75z"/></svg>