<svg id="Layer_1" height="512" viewBox="0 0 128 128" width="512" xmlns="http://www.w3.org/2000/svg" data-name="Layer 1"><path d="m12 27.751h104v72.497h-104z" fill="#d60a2e"/><path d="m12 27.751h104v24.166h-104z" fill="#f0f0f0"/><path d="m12 27.751h104v12.083h-104z" fill="#0b55b1"/><path d="m12 76.083h104v24.166h-104z" fill="#0b55b1"/><path d="m12 76.083h104v12.083h-104z" fill="#f0f0f0"/><ellipse cx="64" cy="64" fill="#f0f0f0" rx="5.113" ry="6.375"/><path d="m12 53.667a1.75 1.75 0 0 0 1.75-1.75v-10.333h94a1.75 1.75 0 0 0 0-3.5h-94v-10.333a1.75 1.75 0 0 0 -3.5 0v24.166a1.75 1.75 0 0 0 1.75 1.75z"/><path d="m12 61.313a1.75 1.75 0 0 0 1.75-1.75v-.563a1.75 1.75 0 0 0 -3.5 0v.563a1.75 1.75 0 0 0 1.75 1.75z"/><path d="m116 26h-95.375a1.75 1.75 0 0 0 0 3.5h93.625v20.667h-93.625a1.75 1.75 0 0 0 0 3.5h93.625v20.666h-12.5a1.75 1.75 0 0 0 0 3.5h12.5v8.583h-95a1.75 1.75 0 0 0 0 3.5h95v8.584h-100.5v-20.667h74.25a1.75 1.75 0 0 0 0-3.5h-74.25v-8.458a1.75 1.75 0 0 0 -3.5 0v34.374a1.75 1.75 0 0 0 1.75 1.751h104a1.75 1.75 0 0 0 1.75-1.75v-72.5a1.75 1.75 0 0 0 -1.75-1.75z"/><path d="m95 77.833a1.75 1.75 0 0 0 0-3.5h-.75a1.75 1.75 0 0 0 0 3.5z"/><path d="m70.863 64c0-4.48-3.079-8.125-6.863-8.125s-6.863 3.645-6.863 8.125 3.079 8.125 6.863 8.125 6.863-3.645 6.863-8.125zm-10.226 0c0-2.507 1.54-4.625 3.363-4.625s3.363 2.118 3.363 4.625-1.54 4.625-3.363 4.625-3.363-2.118-3.363-4.625z"/></svg>