<svg id="Layer_1" height="512" viewBox="0 0 128 128" width="512" xmlns="http://www.w3.org/2000/svg" data-name="Layer 1"><path d="m12 27.751h104v72.497h-104z" fill="#f0f0f0"/><path d="m12 76.083h104v24.166h-104z" fill="#0b55b1"/><path d="m12 27.751h104v24.166h-104z" fill="#d60a2e"/><path d="m79.5 76.381c-6.991 11-24.009 11-31 0v-29.011h31z" fill="#f0f0f0"/><path d="m48.5 47.37h15.5v18.63h-15.5z" fill="#d60a2e"/><path d="m64 84.63a18.165 18.165 0 0 0 15.5-8.249v-10.381h-15.5z" fill="#d60a2e"/><path d="m64 86.38a19.9 19.9 0 0 1 -16.977-9.061 1.75 1.75 0 0 1 -.273-.938v-29.011a1.75 1.75 0 0 1 1.75-1.75h31a1.749 1.749 0 0 1 1.75 1.75v29.011a1.75 1.75 0 0 1 -.273.938 19.9 19.9 0 0 1 -16.977 9.061zm-13.75-10.523a16.972 16.972 0 0 0 27.5 0v-26.737h-27.5z" fill="#0b55b1"/><path d="m79.5 45.62h-15.5v3.5h13.75v26.737a16.454 16.454 0 0 1 -13.75 7.023v3.5a19.9 19.9 0 0 0 16.977-9.061 1.75 1.75 0 0 0 .273-.938v-29.011a1.749 1.749 0 0 0 -1.75-1.75z" fill="#049"/><path d="m116 90.25a1.749 1.749 0 0 0 -1.75 1.75v.75a1.75 1.75 0 0 0 3.5 0v-.75a1.749 1.749 0 0 0 -1.75-1.75z"/><path d="m116 26h-89.208a1.75 1.75 0 0 0 0 3.5h87.458v20.667h-33v-2.8a1.749 1.749 0 0 0 -1.75-1.75h-31a1.75 1.75 0 0 0 -1.75 1.75v26.966h-33v-20.666h27.083a1.75 1.75 0 0 0 0-3.5h-27.083v-22.416a1.75 1.75 0 0 0 -3.5 0v72.5a1.75 1.75 0 0 0 1.75 1.749h104a1.75 1.75 0 0 0 0-3.5h-102.25v-20.667h33.624a20.439 20.439 0 0 0 33.6-.514 1.75 1.75 0 0 0 .273-.938v-22.714h33v20.666h-27.247a1.75 1.75 0 0 0 0 3.5h27.25v8.042a1.75 1.75 0 0 0 3.5 0v-58.124a1.749 1.749 0 0 0 -1.75-1.751zm-38.25 23.12v15.13h-12v-10.5a1.75 1.75 0 0 0 -3.5 0v10.5h-12v-15.13zm-27.5 26.737v-8.107h12v15.038a16.286 16.286 0 0 1 -12-6.931zm15.5 6.931v-15.038h12v8.107a16.286 16.286 0 0 1 -12 6.931z"/><path d="m20 29.5h.583a1.75 1.75 0 0 0 0-3.5h-.583a1.75 1.75 0 0 0 0 3.5z"/></svg>