<svg id="Layer_1" height="512" viewBox="0 0 128 128" width="512" xmlns="http://www.w3.org/2000/svg" data-name="Layer 1"><path d="m12 27.751h104v72.497h-104z" fill="#d60a2e"/><path d="m116 57.667h-60.917v-29.916h-12.666v29.916h-30.417v12.666h30.417v29.916h12.666v-29.916h60.917z" fill="#f0f0f0"/><path d="m12 38.417a1.749 1.749 0 0 0 1.75-1.75v-1.042a1.75 1.75 0 0 0 -3.5 0v1.042a1.749 1.749 0 0 0 1.75 1.75z"/><path d="m116 26h-104a1.75 1.75 0 0 0 0 3.5h28.667v26.417h-26.917v-12.334a1.75 1.75 0 0 0 -3.5 0v56.666a1.749 1.749 0 0 0 1.75 1.751h104a1.749 1.749 0 0 0 1.75-1.75v-72.5a1.749 1.749 0 0 0 -1.75-1.75zm-59.167 72.5v-26.417h9a1.75 1.75 0 0 0 0-3.5h-10.75a1.749 1.749 0 0 0 -1.75 1.75v28.167h-39.583v-26.417h26.917v21.084a1.75 1.75 0 0 0 3.5 0v-22.834a1.749 1.749 0 0 0 -1.75-1.75h-28.667v-9.166h28.667a1.749 1.749 0 0 0 1.75-1.75v-28.167h70.083v39.083h-34.125a1.75 1.75 0 0 0 0 3.5h34.125v26.417z"/><path d="m109.75 57.667a1.749 1.749 0 0 0 -1.75-1.75h-51.167v-21.417a1.75 1.75 0 0 0 -3.5 0v23.167a1.749 1.749 0 0 0 1.75 1.75h52.917a1.749 1.749 0 0 0 1.75-1.75z"/><path d="m73.876 68.583h-1.209a1.75 1.75 0 0 0 0 3.5h1.209a1.75 1.75 0 0 0 0-3.5z"/></svg>