<svg id="Layer_1" height="512" viewBox="0 0 128 128" width="512" xmlns="http://www.w3.org/2000/svg" data-name="Layer 1"><path d="m12 27.751h104v72.497h-104z" fill="#f0f0f0"/><path d="m12 27.751h104v24.166h-104z" fill="#d60a2e"/><path d="m12 76.083h104v24.166h-104z" fill="#191f1e"/><g fill="#fe9933"><path d="m60.721 60.805h-9.721a1.75 1.75 0 1 0 0 3.5h9.721a1.75 1.75 0 0 0 0-3.5z"/><path d="m60.721 64.754h-7.415a1.75 1.75 0 0 0 0 3.5h7.415a1.75 1.75 0 0 0 0-3.5z"/><path d="m60.721 68.7h-4.521a1.75 1.75 0 0 0 0 3.5h4.521a1.75 1.75 0 1 0 0-3.5z"/><path d="m77 60.805h-9.721a1.75 1.75 0 1 0 0 3.5h9.721a1.75 1.75 0 0 0 0-3.5z"/><path d="m74.694 64.754h-7.415a1.75 1.75 0 0 0 0 3.5h7.415a1.75 1.75 0 0 0 0-3.5z"/><path d="m71.8 68.7h-4.521a1.75 1.75 0 0 0 0 3.5h4.521a1.75 1.75 0 0 0 0-3.5z"/><path d="m65.75 57.547a1.75 1.75 0 0 0 -1.75-1.747h-4.151a1.75 1.75 0 1 0 0 3.5h2.4v.754a1.75 1.75 0 0 0 3.5 0z"/></g><path d="m116 98.5h-102.25v-44.833h95.25a1.75 1.75 0 0 0 0-3.5h-95.25v-22.416a1.75 1.75 0 0 0 -3.5 0v72.5a1.75 1.75 0 0 0 1.75 1.749h104a1.75 1.75 0 0 0 0-3.5z"/><path d="m116 91.75a1.75 1.75 0 0 0 -1.75 1.75v.918a1.75 1.75 0 0 0 3.5 0v-.918a1.75 1.75 0 0 0 -1.75-1.75z"/><path d="m116 26h-89.125a1.75 1.75 0 0 0 0 3.5h87.375v44.833h-94.917a1.75 1.75 0 0 0 0 3.5h94.917v9.417a1.75 1.75 0 0 0 3.5 0v-59.5a1.75 1.75 0 0 0 -1.75-1.75z"/><path d="m20.25 29.5h.417a1.75 1.75 0 0 0 0-3.5h-.417a1.75 1.75 0 0 0 0 3.5z"/></svg>