<svg id="Layer_1" height="512" viewBox="0 0 128 128" width="512" xmlns="http://www.w3.org/2000/svg" data-name="Layer 1"><path d="m12 27.751h104v72.497h-104z" fill="#f0f0f0"/><path d="m116 57.667h-45.667v-29.916h-12.666v29.916h-45.667v12.666h45.667v29.916h12.666v-29.916h45.667z" fill="#d60a2e"/><path d="m116 26h-58.333a1.749 1.749 0 0 0 -1.75 1.75v28.167h-42.167v-26.417h36.25a1.75 1.75 0 0 0 0-3.5h-38a1.749 1.749 0 0 0 -1.75 1.75v58a1.75 1.75 0 0 0 3.5 0v-26.333h43.917a1.749 1.749 0 0 0 1.75-1.75v-28.167h9.166v28.167a1.75 1.75 0 0 0 3.5 0v-28.167h42.167v26.417h-29.188a1.75 1.75 0 1 0 0 3.5h29.188v9.166h-43.917a1.749 1.749 0 0 0 -1.75 1.75v22.917a1.75 1.75 0 0 0 3.5 0v-21.167h42.167v26.417h-54.833v-28.167a1.749 1.749 0 0 0 -1.75-1.75h-38.167a1.75 1.75 0 0 0 0 3.5h36.417v26.417h-43.917a1.75 1.75 0 0 0 0 3.5h104a1.749 1.749 0 0 0 1.75-1.75v-72.5a1.749 1.749 0 0 0 -1.75-1.75z"/><path d="m12 95a1.749 1.749 0 0 0 1.75-1.75v-1a1.75 1.75 0 0 0 -3.5 0v1a1.749 1.749 0 0 0 1.75 1.75z"/><path d="m78.125 59.417a1.75 1.75 0 0 0 0-3.5h-.625a1.75 1.75 0 0 0 0 3.5z"/></svg>