<svg id="Layer_1" height="512" viewBox="0 0 128 128" width="512" xmlns="http://www.w3.org/2000/svg" data-name="Layer 1"><path d="m12 27.751h104v72.497h-104z" fill="#0b55b1"/><g fill="#f0f0f0"><path d="m12 27.751h104v10.357h-104z"/><path d="m12 48.465h104v10.357h-104z"/><path d="m12 69.178h104v10.357h-104z"/><path d="m12 89.892h104v10.357h-104z"/></g><path d="m12 27.751h31.07v31.07h-31.07z" fill="#0b55b1"/><path d="m43.07 37.261h-9.51v-9.51h-12.05v9.51h-9.51v12.051h9.51v9.51h12.05v-9.51h9.51z" fill="#f0f0f0"/><path d="m87.833 29.5h.334a1.75 1.75 0 0 0 0-3.5h-.334a1.75 1.75 0 0 0 0 3.5z"/><path d="m116 26h-20.5a1.75 1.75 0 0 0 0 3.5h18.75v6.857h-63a1.75 1.75 0 0 0 0 3.5h63v6.857h-69.43v-17.214h35.847a1.75 1.75 0 0 0 0-3.5h-68.667a1.75 1.75 0 0 0 -1.75 1.75v72.5a1.75 1.75 0 0 0 1.75 1.75h104a1.749 1.749 0 0 0 1.75-1.75v-72.5a1.749 1.749 0 0 0 -1.75-1.75zm-1.75 41.428h-100.5v-6.857h93.5a1.75 1.75 0 0 0 0-3.5h-62.43v-6.856h69.43zm-94.49-10.357h-6.01v-6.009h6.01zm21.56 0h-6.009v-6.009h6.009zm0-21.559h-6.009v-6.012h6.009zm-9.509-6.012v7.761a1.749 1.749 0 0 0 1.75 1.75h7.759v8.55h-7.759a1.749 1.749 0 0 0 -1.75 1.75v7.759h-8.551v-7.758a1.75 1.75 0 0 0 -1.75-1.75h-7.76v-8.55h7.76a1.75 1.75 0 0 0 1.75-1.75v-3.429a1.75 1.75 0 0 0 -3.5 0v1.679h-6.01v-6.012zm-18.061 69v-17.215h38.417a1.75 1.75 0 0 0 0-3.5h-38.417v-6.856h100.5v6.856h-46a1.75 1.75 0 0 0 0 3.5h46v6.857h-93.75a1.75 1.75 0 0 0 0 3.5h93.75v6.858z"/><path d="m59.625 81.285h1.375a1.75 1.75 0 0 0 0-3.5h-1.375a1.75 1.75 0 0 0 0 3.5z"/></svg>