<svg id="Layer_1" height="512" viewBox="0 0 128 128" width="512" xmlns="http://www.w3.org/2000/svg" data-name="Layer 1"><path d="m12 27.751h104v72.497h-104z" fill="#d60a2e"/><g fill="#f0f0f0"><path d="m59.012 61.769s-7.253-4.533-3.886-14.376a12.453 12.453 0 0 1 12.822-8.807s-2.762 2.09-1.683 4.533c2.115 4.792 1.036 9.714-3.238 12.693s-4.015 5.957-4.015 5.957z"/><path d="m64.738 60.245s2.305-8.237 12.7-7.779a12.452 12.452 0 0 1 12.062 9.82s-2.784-2.061-4.824-.338c-4 3.38-9.028 3.732-13.091.47s-6.847-2.173-6.847-2.173z"/><path d="m67.353 65.514s8.525-.7 11.7 9.209a12.452 12.452 0 0 1 -5.023 14.722s.97-3.326-1.354-4.645c-4.559-2.58-6.633-7.172-4.984-12.114s-.339-7.172-.339-7.172z"/><path d="m63.514 69.58s3.5 7.8-4.776 14.106a12.454 12.454 0 0 1 -15.555.178s3.459-.2 3.923-2.828c.91-5.159 4.547-8.646 9.756-8.742s6.652-2.714 6.652-2.714z"/><path d="m58.527 67.867s-6.64 5.39-14.859-.988a12.453 12.453 0 0 1 -4.168-14.986s1.082 3.291 3.742 3.063c5.219-.446 9.525 2.171 10.956 7.18s4.329 5.731 4.329 5.731z"/></g><path d="m116 26h-104a1.75 1.75 0 0 0 -1.75 1.75v10.8a1.75 1.75 0 0 0 3.5 0v-9.05h100.5v70.748a1.75 1.75 0 0 0 3.5 0v-72.5a1.75 1.75 0 0 0 -1.75-1.748z"/><path d="m12 47.188a1.751 1.751 0 0 0 1.75-1.75v-.688a1.75 1.75 0 0 0 -3.5 0v.688a1.751 1.751 0 0 0 1.75 1.75z"/><path d="m108.125 98.5h-94.375v-46.6a1.75 1.75 0 0 0 -3.5 0v48.355a1.75 1.75 0 0 0 1.75 1.745h96.125a1.75 1.75 0 0 0 0-3.5z"/><path d="m80.329 54.665a1.75 1.75 0 1 0 .927-3.375c-.231-.063-.466-.123-.707-.177a1.75 1.75 0 1 0 -.756 3.418c.183.04.361.086.536.134z"/><path d="m43.089 53.213c-1.24.074-1.927-1.857-1.93-1.865a1.749 1.749 0 0 0 -3.246-.2 14.151 14.151 0 0 0 4.687 17.114 15.189 15.189 0 0 0 9.2 3.461 12.022 12.022 0 0 0 -6.419 9.009c-.212 1.2-2.289 1.384-2.3 1.385a1.75 1.75 0 0 0 -1.024 3.083 14.2 14.2 0 0 0 8.795 3.067 14.563 14.563 0 0 0 8.948-3.188 15.257 15.257 0 0 0 5.665-7.832 12.012 12.012 0 0 0 6.351 9.079c1.064.6.541 2.621.539 2.631a1.75 1.75 0 0 0 2.567 2 14.15 14.15 0 0 0 5.8-16.766 15.16 15.16 0 0 0 -5.739-8.125 11.027 11.027 0 0 0 2.753.352 12.517 12.517 0 0 0 8.069-3.13c.934-.79 2.646.4 2.653.407a1.75 1.75 0 0 0 2.764-1.713 14.836 14.836 0 0 0 -4.148-7.427 1.75 1.75 0 1 0 -2.415 2.533 10.694 10.694 0 0 1 1.884 2.42 4.586 4.586 0 0 0 -3 1.106c-3.484 2.942-7.546 3.108-10.866.442a12.051 12.051 0 0 0 -5.116-2.572 9.842 9.842 0 0 1 6.564-4.075 1.749 1.749 0 1 0 -.612-3.445 13.668 13.668 0 0 0 -6.014 2.58 12.008 12.008 0 0 0 .363-11.129c-.49-1.121 1.138-2.428 1.138-2.434a1.749 1.749 0 0 0 -.865-3.134 14.152 14.152 0 0 0 -14.669 9.98 15.089 15.089 0 0 0 -.2 10.088 12.015 12.015 0 0 0 -10.177-3.702zm-2.8 2.65a4.568 4.568 0 0 0 3.1.836c4.551-.385 7.955 1.825 9.125 5.918a12.04 12.04 0 0 0 2.682 5.049c-2.275.81-6.084 1.222-10.453-2.17a10.539 10.539 0 0 1 -4.453-9.633zm17.389 26.431a10.541 10.541 0 0 1 -10.454 1.824 4.586 4.586 0 0 0 1.605-2.778c.793-4.49 3.807-7.218 8.064-7.3a12.053 12.053 0 0 0 5.569-1.294c.199 2.411-.384 6.198-4.784 9.548zm19.712-7.036a10.541 10.541 0 0 1 -1.769 10.463 4.589 4.589 0 0 0 -2.083-2.441c-3.969-2.245-5.534-6-4.186-10.036a12.075 12.075 0 0 0 .638-5.681c2.335.617 5.71 2.43 7.4 7.695zm-20.608-27.298a10.543 10.543 0 0 1 7.669-7.336 4.584 4.584 0 0 0 .213 3.2c1.841 4.172.855 8.115-2.638 10.55a12.036 12.036 0 0 0 -3.909 4.183c-1.511-1.884-3.131-5.347-1.335-10.597zm1.3 15.294a1.75 1.75 0 0 0 2.671-1.636c0-.02.031-2.111 3.272-4.371.121-.084.229-.176.345-.263a11.808 11.808 0 0 0 -1.319 2.789 1.754 1.754 0 0 0 .485 1.779 1.708 1.708 0 0 0 1.785.343c.083-.026 2.055-.609 5.167 1.887.192.154.389.293.586.433a11.194 11.194 0 0 0 -3.866-.445 1.751 1.751 0 0 0 -1.5 1.072 1.708 1.708 0 0 0 .3 1.793c.053.068 1.283 1.718.021 5.5-.029.086-.047.172-.074.259a11.119 11.119 0 0 0 -.847-3.533 1.754 1.754 0 0 0 -1.508-1.053 1.67 1.67 0 0 0 -1.59.88c-.044.068-1.058 1.582-4.488 1.825a10.266 10.266 0 0 0 2.109-1.287 1.754 1.754 0 0 0 .632-1.732 1.709 1.709 0 0 0 -1.263-1.31c-.083-.027-2.03-.693-3.126-4.528-.048-.168-.109-.327-.163-.49a10.806 10.806 0 0 0 2.373 2.088z"/></svg>