<svg id="Layer_1" height="512" viewBox="0 0 128 128" width="512" xmlns="http://www.w3.org/2000/svg" data-name="Layer 1"><path d="m12 27.751h104v72.497h-104z" fill="#0b55b1"/><path d="m116 55h-61v-27.249h-18v27.249h-25v18h25v27.249h18v-27.249h61z" fill="#f0f0f0"/><path d="m116 60.5h-66.5v-32.749h-7v32.749h-30.5v7h30.5v32.749h7v-32.749h66.5z" fill="#d60a2e"/><path d="m116 38.25a1.749 1.749 0 0 0 -1.75 1.75v13.25h-57.5v-23.75h59.25a1.75 1.75 0 0 0 0-3.5h-104a1.749 1.749 0 0 0 -1.75 1.75v65.25a1.75 1.75 0 0 0 3.5 0v-23.75h27v29.25h-2v-25.5a1.749 1.749 0 0 0 -1.75-1.75h-18.375a1.75 1.75 0 0 0 0 3.5h16.625v23.75h-23.25a1.75 1.75 0 0 0 0 3.5h104a1.749 1.749 0 0 0 1.75-1.75v-60.25a1.749 1.749 0 0 0 -1.75-1.75zm-75.25-8.75v29.25h-27v-2h23.25a1.749 1.749 0 0 0 1.75-1.75v-20.75a1.75 1.75 0 0 0 -3.5 0v19h-21.5v-23.75zm3.5 69v-31a1.749 1.749 0 0 0 -1.75-1.75h-28.75v-3.5h28.75a1.749 1.749 0 0 0 1.75-1.75v-31h3.5v31a1.75 1.75 0 0 0 3.5 0v-31h2v25.5a1.749 1.749 0 0 0 1.75 1.75h59.25v2h-52a1.75 1.75 0 0 0 0 3.5h52v9h-59.25a1.749 1.749 0 0 0 -1.75 1.75v25.5zm12.5 0v-23.75h57.5v23.75z"/><path d="m116 31.875a1.749 1.749 0 0 0 -1.75 1.75v.625a1.75 1.75 0 0 0 3.5 0v-.625a1.749 1.749 0 0 0 -1.75-1.75z"/><path d="m55.667 62.25h1a1.75 1.75 0 0 0 0-3.5h-1a1.75 1.75 0 0 0 0 3.5z"/><path d="m110.417 67.5a1.749 1.749 0 0 0 -1.75-1.75h-59.167a1.749 1.749 0 0 0 -1.75 1.75v26.667a1.75 1.75 0 0 0 3.5 0v-24.917h57.417a1.749 1.749 0 0 0 1.75-1.75z"/></svg>