<svg id="Layer_1" height="512" viewBox="0 0 128 128" width="512" xmlns="http://www.w3.org/2000/svg" data-name="Layer 1"><path d="m12 27.751h104v72.497h-104z" fill="#d60a2e"/><path d="m12 64h104v36.249h-104z" fill="#f0f0f0"/><path d="m116 26h-22.833a1.75 1.75 0 0 0 0 3.5h21.083v32.75h-75.312a1.75 1.75 0 0 0 0 3.5h75.312v25.25a1.75 1.75 0 0 0 3.5 0v-63.249a1.749 1.749 0 0 0 -1.75-1.751z"/><path d="m83.583 29.5h1.084a1.75 1.75 0 0 0 0-3.5h-1.084a1.75 1.75 0 0 0 0 3.5z"/><path d="m116 98.5h-102.25v-32.75h10.25a1.75 1.75 0 0 0 0-3.5h-10.25v-32.75h63a1.75 1.75 0 0 0 0-3.5h-64.75a1.749 1.749 0 0 0 -1.75 1.75v72.5a1.749 1.749 0 0 0 1.75 1.75h104a1.75 1.75 0 0 0 0-3.5z"/><path d="m31.5 62.25a1.75 1.75 0 0 0 0 3.5h.563a1.75 1.75 0 0 0 0-3.5z"/></svg>