<svg id="Layer_1" height="512" viewBox="0 0 128 128" width="512" xmlns="http://www.w3.org/2000/svg" data-name="Layer 1"><path d="m12 27.75h104v72.5h-104z" fill="#f0f0f0"/><path d="m12 27.751h104v24.166h-104z" fill="#6fa44a"/><path d="m12 76.083h104v24.166h-104z" fill="#d60a2e"/><g fill="#f0f0f0"><path d="m17.25 82.69a1.752 1.752 0 0 1 -1.75 1.75h-3.5v-3.5h3.5a1.746 1.746 0 0 1 1.75 1.75z"/><path d="m105.04 80.94h-7.46a1.75 1.75 0 1 0 0 3.5h7.46a1.75 1.75 0 1 0 0-3.5zm-14.92 0h-7.47a1.75 1.75 0 0 0 0 3.5h7.47a1.75 1.75 0 0 0 0-3.5zm-14.93 0h-7.46a1.75 1.75 0 0 0 0 3.5h7.46a1.75 1.75 0 0 0 0-3.5zm-14.92 0h-7.46a1.75 1.75 0 0 0 0 3.5h7.46a1.75 1.75 0 1 0 0-3.5zm-14.92 0h-7.47a1.75 1.75 0 1 0 0 3.5h7.47a1.75 1.75 0 0 0 0-3.5zm-14.93 0h-7.46a1.75 1.75 0 0 0 0 3.5h7.46a1.75 1.75 0 0 0 0-3.5z"/><path d="m116 80.94v3.5h-3.5a1.75 1.75 0 0 1 0-3.5z"/><path d="m17.25 45.31a1.746 1.746 0 0 1 -1.75 1.75h-3.5v-3.5h3.5a1.752 1.752 0 0 1 1.75 1.75z"/><path d="m105.04 43.56h-7.46a1.75 1.75 0 1 0 0 3.5h7.46a1.75 1.75 0 1 0 0-3.5zm-14.92 0h-7.47a1.75 1.75 0 0 0 0 3.5h7.47a1.75 1.75 0 0 0 0-3.5zm-14.93 0h-7.46a1.75 1.75 0 0 0 0 3.5h7.46a1.75 1.75 0 0 0 0-3.5zm-14.92 0h-7.46a1.75 1.75 0 0 0 0 3.5h7.46a1.75 1.75 0 1 0 0-3.5zm-14.92 0h-7.47a1.75 1.75 0 1 0 0 3.5h7.47a1.75 1.75 0 0 0 0-3.5zm-14.93 0h-7.46a1.75 1.75 0 0 0 0 3.5h7.46a1.75 1.75 0 0 0 0-3.5z"/><path d="m116 43.56v3.5h-3.5a1.75 1.75 0 0 1 0-3.5z"/></g><path d="m68.22 57.879a1.75 1.75 0 0 0 -1.237 3.121 4.813 4.813 0 0 1 -1.233 8.259v-12.592a1.75 1.75 0 0 0 -3.5 0v12.575a4.8 4.8 0 0 1 -1.233-8.242 1.75 1.75 0 0 0 -1.237-3.116 9.937 9.937 0 0 0 -8.839 9.713 1.75 1.75 0 0 0 3.493.232 7.393 7.393 0 0 1 1.3-3.939 8.313 8.313 0 1 0 16.578.886 8.576 8.576 0 0 0 -.045-.881 7.4 7.4 0 0 1 1.3 3.934 1.75 1.75 0 0 0 3.493-.232 9.937 9.937 0 0 0 -8.84-9.718z" fill="#d60a2e"/><path d="m116 26h-16.5a1.75 1.75 0 0 0 0 3.5h14.75v20.667h-100.5v-20.667h70.5a1.75 1.75 0 0 0 0-3.5h-72.25a1.75 1.75 0 0 0 -1.75 1.75v72.5a1.75 1.75 0 0 0 3.5 0v-46.583h100.5v20.666h-94.75a1.75 1.75 0 0 0 0 3.5h94.75v20.667h-94.75a1.75 1.75 0 0 0 0 3.5h96.5a1.75 1.75 0 0 0 1.75-1.75v-72.5a1.75 1.75 0 0 0 -1.75-1.75z"/><path d="m91.75 29.5h1.125a1.75 1.75 0 0 0 0-3.5h-1.125a1.75 1.75 0 0 0 0 3.5z"/></svg>