<svg id="Layer_1" height="512" viewBox="0 0 128 128" width="512" xmlns="http://www.w3.org/2000/svg" data-name="Layer 1"><path d="m12 27.751h104v72.497h-104z" fill="#f0f0f0"/><path d="m12 27.751h34.667v72.497h-34.667z" fill="#6fa44a"/><path d="m81.333 27.751h34.667v72.497h-34.667z" fill="#d7821b"/><path d="m20.917 98.5h-.917a1.75 1.75 0 0 0 0 3.5h.917a1.75 1.75 0 0 0 0-3.5z"/><path d="m116 26h-60.5a1.75 1.75 0 0 0 0 3.5h58.75v69h-31.167v-56a1.75 1.75 0 0 0 -3.5 0v56h-31.166v-70.749a1.749 1.749 0 0 0 -1.75-1.751h-34.667a1.749 1.749 0 0 0 -1.75 1.75v72.5a1.75 1.75 0 0 0 3.5 0v-70.75h31.167v69h-17.584a1.75 1.75 0 0 0 0 3.5h88.667a1.749 1.749 0 0 0 1.75-1.75v-72.5a1.749 1.749 0 0 0 -1.75-1.75z"/><path d="m81.333 37.917a1.749 1.749 0 0 0 1.75-1.75v-.917a1.75 1.75 0 0 0 -3.5 0v.917a1.749 1.749 0 0 0 1.75 1.75z"/></svg>