<svg id="Layer_1" height="512" viewBox="0 0 128 128" width="512" xmlns="http://www.w3.org/2000/svg" data-name="Layer 1"><path d="m12 27.751h104v72.497h-104z" fill="#f0f0f0"/><path d="m12 27.751h104v12.249h-104z" fill="#0b55b1"/><path d="m12 88h104v12.249h-104z" fill="#0b55b1"/><path d="m107.167 29.5h.833a1.75 1.75 0 0 0 0-3.5h-.833a1.75 1.75 0 0 0 0 3.5z"/><path d="m116 26a1.75 1.75 0 0 0 -1.75 1.75v10.5h-100.5v-8.75h86.25a1.75 1.75 0 0 0 0-3.5h-88a1.75 1.75 0 0 0 -1.75 1.75v72.5a1.75 1.75 0 0 0 1.75 1.75h104a1.75 1.75 0 0 0 1.75-1.75v-72.5a1.75 1.75 0 0 0 -1.75-1.75zm-102.25 72.5v-56.75h100.5v44.5h-86.5a1.75 1.75 0 0 0 0 3.5h86.5v8.75z"/><path d="m21.333 86.25h-.833a1.75 1.75 0 0 0 0 3.5h.833a1.75 1.75 0 0 0 0-3.5z"/><path d="m47.9 73.706a1.749 1.749 0 0 0 1.5.857h8.606l4.459 8.152a1.75 1.75 0 0 0 3.07 0l4.465-8.152h8.6a1.749 1.749 0 0 0 1.535-2.589l-8.226-15.037h3.739l-.5.91a1.75 1.75 0 1 0 3.071 1.679l1.914-3.5a1.749 1.749 0 0 0 -1.533-2.589h-8.606l-4.459-8.152a1.75 1.75 0 0 0 -3.07 0l-4.459 8.152h-8.606a1.749 1.749 0 0 0 -1.535 2.589l4.362 7.974-4.362 7.974a1.749 1.749 0 0 0 .035 1.732zm16.1 4.523-2-3.666h4.01zm7.909-7.166 1.87-3.417 1.869 3.417zm-.125-7.063-3.864 7.063h-7.84l-3.864-7.063 3.864-7.063h7.84zm-7.784-14.229 2 3.666h-4zm-11.648 7.166h3.739l-1.87 3.417zm3.739 14.126h-3.739l1.869-3.417z"/></svg>