<svg id="Layer_1" height="512" viewBox="0 0 128 128" width="512" xmlns="http://www.w3.org/2000/svg" data-name="Layer 1"><path d="m12 27.751h104v72.497h-104z" fill="#f0f0f0"/><g fill="#d60a2e"><path d="m12 27.751h104v10.357h-104z"/><path d="m12 48.465h104v10.357h-104z"/><path d="m12 69.178h104v10.357h-104z"/><path d="m12 89.892h104v10.357h-104z"/></g><path d="m12 27.751h48.333v31.07h-48.333z" fill="#0b55b1"/><path d="m49 44.612-3.493-2.096 2.353-3.42-3.824 1.398-1.158-3.695-1.158 3.695-3.824-1.398 2.353 3.42-3.493 2.096 3.935.183-.552 4.118 2.739-3.015 2.739 3.015-.551-4.118z" fill="#fed953"/><path d="m37.754 51.274a7.988 7.988 0 1 1 3.006-15.385 10.288 10.288 0 1 0 0 14.795 7.973 7.973 0 0 1 -3.006.59z" fill="#fed953"/><path d="m51.25 98.5h-1.25a1.75 1.75 0 0 0 0 3.5h1.25a1.75 1.75 0 0 0 0-3.5z"/><path d="m116 26h-104a1.75 1.75 0 0 0 0 3.5h46.583v24.074a1.75 1.75 0 0 0 3.5 0v-3.359h52.167v6.856h-100.5v-21.4a1.75 1.75 0 0 0 -3.5 0v64.582a1.75 1.75 0 0 0 1.75 1.747h30.878a1.75 1.75 0 1 0 0-3.5h-29.128v-17.215h100.5v6.857h-94.917a1.75 1.75 0 0 0 0 3.5h94.917v6.858h-55.625a1.75 1.75 0 0 0 0 3.5h57.375a1.75 1.75 0 0 0 1.75-1.75v-72.5a1.75 1.75 0 0 0 -1.75-1.75zm-53.917 20.715v-17.215h52.167v6.857h-47a1.75 1.75 0 0 0 0 3.5h47v6.857zm-48.333 31.07v-6.856h84.625a1.75 1.75 0 0 0 0-3.5h-84.625v-6.858h100.5v17.214z"/><path d="m107.25 67.429h-1.375a1.75 1.75 0 0 0 0 3.5h1.375a1.75 1.75 0 0 0 0-3.5z"/></svg>