<svg id="Layer_1" height="512" viewBox="0 0 128 128" width="512" xmlns="http://www.w3.org/2000/svg" data-name="Layer 1"><path d="m12 27.751h104v72.497h-104z" fill="#f0f0f0"/><path d="m12 27.751h104v24.166h-104z" fill="#d60a2e"/><path d="m12 76.083h104v24.166h-104z" fill="#0b55b1"/><path d="m116 26h-104a1.751 1.751 0 0 0 -1.75 1.75v72.5a1.751 1.751 0 0 0 1.75 1.75h78.167a1.75 1.75 0 0 0 0-3.5h-76.417v-20.667h92.5a1.75 1.75 0 0 0 0-3.5h-92.5v-20.666h8.5a1.75 1.75 0 0 0 0-3.5h-8.5v-20.667h100.5v20.667h-74.875a1.75 1.75 0 0 0 0 3.5h74.875v44.833h-9a1.75 1.75 0 0 0 0 3.5h10.75a1.751 1.751 0 0 0 1.75-1.75v-72.5a1.751 1.751 0 0 0 -1.75-1.75z"/><path d="m98 98.5h-1.083a1.75 1.75 0 0 0 0 3.5h1.083a1.75 1.75 0 0 0 0-3.5z"/><path d="m30 50.167a1.75 1.75 0 0 0 0 3.5h1.25a1.75 1.75 0 0 0 0-3.5z"/></svg>