<svg id="Layer_1" height="512" viewBox="0 0 128 128" width="512" xmlns="http://www.w3.org/2000/svg" data-name="Layer 1"><path d="m12 27.751h104v72.497h-104z" fill="#0b55b1"/><path d="m64 27.751h-7.432l-18.568 12.944-18.568-12.944h-7.432v5.181l18.568 12.944-18.568 12.943v5.181h7.432l18.568-12.944 18.568 12.944h7.432v-5.181l-18.568-12.943 18.568-12.944z" fill="#f0f0f0"/><path d="m64 27.751h-.214l-25.786 17.975-25.786-17.975h-.214v2.353l24.205 16.873-24.205 16.874v.149h3.375l22.625-15.771 22.625 15.771h3.375v-.149l-24.205-16.874 24.205-16.873z" fill="#d60a2e"/><path d="m64 41.209h-21.333v-13.458h-9.334v13.458h-21.333v9.333h21.333v13.458h9.334v-13.458h21.333z" fill="#f0f0f0"/><path d="m36.833 60.5v-13.458h-21.333v-2.333h21.333v-13.458h2.334v13.458h21.333v2.333h-21.333v13.458z" fill="#d60a2e"/><path d="m97.221 45.614-4.067.094-1.176-3.903-1.177 3.903-4.066-.094 3.323 2.385-1.321 3.779 3.241-2.262 3.24 2.262-1.32-3.779z" fill="#f0f0f0"/><path d="m91.978 48.296-1.275.89.547-1.563-1.303-.935 1.591.038.44-1.456.439 1.456 1.592-.038-1.303.935.547 1.564z" fill="#d60a2e"/><path d="m86.442 55.587-4.067.094-1.176-3.903-1.177 3.903-4.066-.094 3.323 2.385-1.321 3.779 3.241-2.262 3.24 2.262-1.32-3.779z" fill="#f0f0f0"/><path d="m80.47 57.596-1.302-.935 1.592.037.439-1.456.44 1.456 1.59-.037-1.302.935.548 1.563-1.276-.889-1.276.89z" fill="#d60a2e"/><path d="m108 55.587-4.067.094-1.176-3.903-1.177 3.903-4.066-.094 3.323 2.385-1.321 3.779 3.241-2.262 3.24 2.262-1.32-3.779z" fill="#f0f0f0"/><path d="m102.757 58.27-1.277.89.547-1.564-1.301-.935 1.591.037.44-1.456.439 1.456 1.592-.037-1.302.935.547 1.564z" fill="#d60a2e"/><path d="m97.221 80.032-4.067.093-1.176-3.903-1.177 3.903-4.066-.093 3.323 2.384-1.321 3.779 3.241-2.261 3.24 2.261-1.32-3.779z" fill="#f0f0f0"/><path d="m91.978 82.714-1.276.89.548-1.564-1.303-.935 1.591.038.44-1.456.439 1.456 1.592-.038-1.302.935.547 1.564z" fill="#d60a2e"/><path d="m12 78.083a1.749 1.749 0 0 0 1.75-1.75v-.916a1.75 1.75 0 0 0 -3.5 0v.916a1.749 1.749 0 0 0 1.75 1.75z"/><path d="m100.167 98.5h-86.417v-15.333a1.75 1.75 0 0 0 -3.5 0v17.082a1.749 1.749 0 0 0 1.75 1.751h88.167a1.75 1.75 0 0 0 0-3.5z"/><path d="m108 98.5h-.833a1.75 1.75 0 0 0 0 3.5h.833a1.75 1.75 0 0 0 0-3.5z"/><path d="m116 26h-104a1.749 1.749 0 0 0 -1.75 1.75v41.083a1.75 1.75 0 0 0 3.5 0v-39.333h100.5v70.748a1.75 1.75 0 0 0 3.5 0v-72.5a1.749 1.749 0 0 0 -1.75-1.748z"/></svg>