<svg id="Layer_1" height="512" viewBox="0 0 128 128" width="512" xmlns="http://www.w3.org/2000/svg" data-name="Layer 1"><path d="m12 27.751h104v72.497h-104z" fill="#d60a2e"/><path d="m116 55h-61v-27.249h-18v27.249h-25v18h25v27.249h18v-27.249h61z" fill="#f0f0f0"/><path d="m116 60.5h-66.5v-32.749h-7v32.749h-30.5v7h30.5v32.749h7v-32.749h66.5z" fill="#0b55b1"/><path d="m116 26h-35.75a1.75 1.75 0 0 0 0 3.5h34v23.75h-57.5v-17.417a1.75 1.75 0 0 0 -3.5 0v19.167a1.749 1.749 0 0 0 1.75 1.75h59.25v9h-64.75a1.749 1.749 0 0 0 -1.75 1.75v31h-9v-25.5a1.749 1.749 0 0 0 -1.75-1.75h-23.25v-2h27v22.917a1.75 1.75 0 0 0 3.5 0v-24.667a1.749 1.749 0 0 0 -1.75-1.75h-28.75v-3.5h15.375a1.75 1.75 0 0 0 0-3.5h-15.375v-2h23.25a1.749 1.749 0 0 0 1.75-1.75v-25.5h2v31a1.75 1.75 0 0 0 3.5 0v-31h3.5v31a1.749 1.749 0 0 0 1.75 1.75h58a1.75 1.75 0 0 0 0-3.5h-56.25v-29.25h14.083a1.75 1.75 0 0 0 0-3.5h-53.333a1.749 1.749 0 0 0 -1.75 1.75v72.5a1.749 1.749 0 0 0 1.75 1.75h104a1.75 1.75 0 0 0 0-3.5h-59.25v-23.75h57.5v17.417a1.75 1.75 0 0 0 3.5 0v-64.416a1.749 1.749 0 0 0 -1.75-1.751zm-80.75 3.5v23.75h-21.5v-23.75zm-21.5 45.25h21.5v23.75h-21.5zm41.25-3.5a1.749 1.749 0 0 0 -1.75 1.75v25.5h-2v-29.25h63v2z"/><path d="m72.833 29.5h.917a1.75 1.75 0 0 0 0-3.5h-.917a1.75 1.75 0 0 0 0 3.5z"/><path d="m36.75 58.75h-.75a1.75 1.75 0 0 0 0 3.5h.75a1.75 1.75 0 0 0 0-3.5z"/></svg>