<svg id="Layer_1" height="512" viewBox="0 0 128 128" width="512" xmlns="http://www.w3.org/2000/svg" data-name="Layer 1"><path d="m12 27.751h104v72.497h-104z" fill="#f0f0f0"/><path d="m12 27.751h34.667v72.497h-34.667z" fill="#d60a2e"/><path d="m81.333 27.751h34.667v72.497h-34.667z" fill="#b80016"/><path d="m72.064 65.4c-2.87-4.448-.274-6.685-.274-6.685l-2.29-2.442a7.531 7.531 0 0 1 -5.5-1.941 7.531 7.531 0 0 1 -5.5 1.941l-2.29 2.444s2.6 2.237-.274 6.685c-3.758 5.822 6.689 5.211 8.064 8.266 1.375-3.055 11.822-2.444 8.064-8.268z" fill="#6fa44a"/><path d="m106.313 29.5h.854a1.75 1.75 0 0 0 0-3.5h-.854a1.75 1.75 0 1 0 0 3.5z"/><path d="m12 94.083a1.75 1.75 0 0 0 1.75-1.75v-1a1.75 1.75 0 0 0 -3.5 0v1a1.75 1.75 0 0 0 1.75 1.75z"/><path d="m116 26a1.75 1.75 0 0 0 -1.75 1.75v70.75h-31.167v-69h16.792a1.75 1.75 0 0 0 0-3.5h-87.875a1.75 1.75 0 0 0 -1.75 1.75v57a1.75 1.75 0 0 0 3.5 0v-55.25h65.833v69h-31.166v-62.5a1.75 1.75 0 0 0 -3.5 0v62.5h-32.917a1.75 1.75 0 0 0 0 3.5h104a1.75 1.75 0 0 0 1.75-1.75v-72.5a1.75 1.75 0 0 0 -1.75-1.75z"/><path d="m53.583 68.9c.777 2.27 3.387 3.188 5.69 4 1.016.358 2.9 1.022 3.131 1.49a1.744 1.744 0 0 0 1.582 1.01h.023a1.786 1.786 0 0 0 1.591-1.013c.226-.469 2.115-1.133 3.131-1.491 2.3-.81 4.913-1.728 5.69-4a5.064 5.064 0 0 0 -.882-4.446c-1.917-2.971-.708-4.3-.6-4.41a1.748 1.748 0 0 0 .134-2.521l-2.291-2.445a1.75 1.75 0 0 0 -1.276-.554 5.981 5.981 0 0 1 -4.2-1.359 1.75 1.75 0 1 0 -2.606 2.339 8.9 8.9 0 0 0 6.02 2.5l.83.887c-.784 1.637-1.033 4.243 1.046 7.466.48.743.579 1.217.512 1.414-.228.665-2.222 1.366-3.541 1.83a16.169 16.169 0 0 0 -3.567 1.572 16.169 16.169 0 0 0 -3.565-1.569c-1.319-.464-3.313-1.165-3.541-1.83-.067-.2.032-.671.512-1.414 2.079-3.223 1.83-5.829 1.046-7.466l1.326-1.416a1.75 1.75 0 1 0 -2.553-2.393l-2.291 2.445a1.721 1.721 0 0 0 -.491 1.271 1.689 1.689 0 0 0 .586 1.215c.144.142 1.353 1.474-.564 4.445a5.064 5.064 0 0 0 -.882 4.443z"/></svg>