<svg id="Layer_1" height="512" viewBox="0 0 128 128" width="512" xmlns="http://www.w3.org/2000/svg" data-name="Layer 1"><path d="m12 27.751h104v72.497h-104z" fill="#6fa44a"/><path d="m45 27.751h71v72.497h-71z" fill="#d60a2e"/><circle cx="45" cy="64" fill="#fed953" r="16"/><path d="m51.813 69.556a8.214 8.214 0 0 1 -13.626 0v-12.751h13.626z" fill="#f0f0f0"/><path d="m45 74.932a9.724 9.724 0 0 1 -8.29-4.432 1.754 1.754 0 0 1 -.273-.939v-12.756a1.75 1.75 0 0 1 1.75-1.75h13.626a1.75 1.75 0 0 1 1.75 1.75v12.751a1.756 1.756 0 0 1 -.273.939 9.723 9.723 0 0 1 -8.29 4.437zm-5.063-5.922a6.5 6.5 0 0 0 10.126 0v-10.455h-10.126z" fill="#d60a2e"/><path d="m116 26a1.751 1.751 0 0 0 -1.75 1.75v70.75h-61.437a1.75 1.75 0 0 0 0 3.5h63.187a1.751 1.751 0 0 0 1.75-1.75v-72.5a1.751 1.751 0 0 0 -1.75-1.75z"/><path d="m45 85.25a1.751 1.751 0 0 0 -1.75 1.75v11.5h-29.5v-69h29.5v16.839a17.594 17.594 0 0 0 -4.716 1.126 1.75 1.75 0 0 0 1.275 3.26 14.186 14.186 0 0 1 5.191-.975 14.235 14.235 0 1 1 -13.386 9.343 1.75 1.75 0 0 0 -3.286-1.206 17.753 17.753 0 1 0 18.422-11.548v-16.839h61.25a1.75 1.75 0 0 0 0-3.5h-96a1.751 1.751 0 0 0 -1.75 1.75v72.5a1.751 1.751 0 0 0 1.75 1.75h33a1.751 1.751 0 0 0 1.75-1.75v-13.25a1.751 1.751 0 0 0 -1.75-1.75z"/><path d="m34.814 54.035q.328-.336.678-.65a1.75 1.75 0 1 0 -2.337-2.6q-.434.39-.842.806a1.75 1.75 0 1 0 2.5 2.449z"/><path d="m45 74.932a9.723 9.723 0 0 0 8.29-4.432 1.756 1.756 0 0 0 .273-.939v-12.756a1.75 1.75 0 0 0 -1.75-1.75h-13.626a1.75 1.75 0 0 0 -1.75 1.75v12.751a1.754 1.754 0 0 0 .273.939 9.724 9.724 0 0 0 8.29 4.437zm-5.063-16.377h10.126v10.455a6.5 6.5 0 0 1 -10.126 0z"/></svg>