<svg id="Layer_1" height="512" viewBox="0 0 128 128" width="512" xmlns="http://www.w3.org/2000/svg" data-name="Layer 1"><path d="m12 27.751h104v72.497h-104z" fill="#fed953"/><path d="m81.333 27.751h34.667v72.497h-34.667z" fill="#b80016"/><path d="m12 27.751h34.667v72.497h-34.667z" fill="#0b55b1"/><path d="m107.75 98.5h-24.667v-6a1.75 1.75 0 0 0 -3.5 0v6h-31.166v-61.75a1.75 1.75 0 0 0 -3.5 0v61.75h-31.167v-70.749a1.75 1.75 0 0 0 -3.5 0v72.5a1.75 1.75 0 0 0 1.75 1.749h95.75a1.75 1.75 0 0 0 0-3.5z"/><path d="m116 26h-86.25a1.75 1.75 0 0 0 0 3.5h49.833v49.563a1.75 1.75 0 1 0 3.5 0v-49.563h31.167v70.748a1.75 1.75 0 0 0 3.5 0v-72.5a1.749 1.749 0 0 0 -1.75-1.748z"/><path d="m20.75 29.5h1.125a1.75 1.75 0 0 0 0-3.5h-1.125a1.75 1.75 0 0 0 0 3.5z"/><path d="m81.333 87.417a1.749 1.749 0 0 0 1.75-1.75v-.667a1.75 1.75 0 0 0 -3.5 0v.667a1.749 1.749 0 0 0 1.75 1.75z"/></svg>