<svg id="Layer_1" height="512" viewBox="0 0 128 128" width="512" xmlns="http://www.w3.org/2000/svg" data-name="Layer 1"><path d="m12 27.751h104v72.497h-104z" fill="#0b55b1"/><path d="m12 27.751h104v24.166h-104z" fill="#f0f0f0"/><path d="m12 76.083h104v24.166h-104z" fill="#d60a2e"/><path d="m58.653 76.4-8.486 7.375-8.486-7.375a22.2 22.2 0 0 1 -7.507-19.155l1.415-13.012h29.155l1.416 13.008a22.2 22.2 0 0 1 -7.507 19.159z" fill="#d60a2e"/><path d="m62.547 71.959a6.1 6.1 0 0 0 -6.3-.787 6.122 6.122 0 0 0 -12.163 0 6.1 6.1 0 0 0 -6.3.787 22.161 22.161 0 0 0 3.897 4.441l8.486 7.375 8.486-7.375a22.188 22.188 0 0 0 3.894-4.441z" fill="#0b55b1"/><path d="m50.167 85.521a1.745 1.745 0 0 1 -1.148-.429l-8.487-7.374a23.961 23.961 0 0 1 -8.1-20.667l1.417-13.011a1.751 1.751 0 0 1 1.74-1.561h29.156a1.749 1.749 0 0 1 1.739 1.561l1.416 13.011a23.958 23.958 0 0 1 -8.1 20.666l-8.486 7.374a1.743 1.743 0 0 1 -1.147.43zm-13.008-39.542-1.246 11.451a20.456 20.456 0 0 0 6.915 17.645l7.339 6.377 7.339-6.377a20.461 20.461 0 0 0 6.915-17.645l-1.247-11.451z" fill="#f0f0f0"/><path d="m116 26h-89.25a1.75 1.75 0 0 0 0 3.5h87.5v44.833h-39.167a1.75 1.75 0 0 0 0 3.5h39.167v20.667h-100.5v-44.833h19.05l-.369 3.384a23.959 23.959 0 0 0 4.905 17.282h-17.336a1.75 1.75 0 0 0 0 3.5h20.166a1.691 1.691 0 0 0 .43-.06l8.422 7.319a1.751 1.751 0 0 0 2.3 0l8.482-7.375a23.961 23.961 0 0 0 8.1-20.666l-.368-3.384h41.136a1.75 1.75 0 0 0 0-3.5h-41.518l-.666-6.127a1.75 1.75 0 0 0 -1.74-1.561h-22.087a1.75 1.75 0 0 0 0 3.5h20.517l1.246 11.451a20.446 20.446 0 0 1 -2.467 12.151 7.861 7.861 0 0 0 -4.46-.6 7.862 7.862 0 0 0 -5.577-4.766v-10.048h2.958a1.75 1.75 0 0 0 0-3.5h-2.958v-1.25a1.75 1.75 0 0 0 -3.5 0v1.25h-2.958a1.75 1.75 0 0 0 0 3.5h2.958v2.271h-5.76a1.75 1.75 0 1 0 0 3.5h5.76v4.281a7.859 7.859 0 0 0 -5.576 4.766 7.917 7.917 0 0 0 -4.459.6 20.44 20.44 0 0 1 -2.468-12.155l1.415-13.011a1.749 1.749 0 0 0 -1.55-1.929 1.731 1.731 0 0 0 -1.929 1.55l-.667 6.127h-19.432v-22.416a1.75 1.75 0 0 0 -3.5 0v72.5a1.75 1.75 0 0 0 1.75 1.749h104a1.749 1.749 0 0 0 1.75-1.75v-72.5a1.749 1.749 0 0 0 -1.75-1.75zm-72.631 46.769a1.752 1.752 0 0 0 2.455-1.4 4.372 4.372 0 0 1 8.686 0 1.752 1.752 0 0 0 2.455 1.4 4.368 4.368 0 0 1 2.971-.211 20.326 20.326 0 0 1 -2.431 2.517l-7.339 6.377-7.338-6.377a20.326 20.326 0 0 1 -2.428-2.517 4.365 4.365 0 0 1 2.969.211z"/><path d="m20 29.5h1.125a1.75 1.75 0 0 0 0-3.5h-1.125a1.75 1.75 0 0 0 0 3.5z"/><path d="m68.29 74.333a1.75 1.75 0 1 0 0 3.5h.959a1.75 1.75 0 0 0 0-3.5z"/><path d="m53.5 58.188a1.751 1.751 0 0 0 1.75 1.75h2.428a1.75 1.75 0 1 0 0-3.5h-2.429a1.75 1.75 0 0 0 -1.749 1.75z"/></svg>