<svg id="Layer_1" height="512" viewBox="0 0 128 128" width="512" xmlns="http://www.w3.org/2000/svg" data-name="Layer 1"><path d="m12 27.751h104v72.497h-104z" fill="#d60a2e"/><path d="m116 54.5h-60.274l-25.582-26.749h-18.144v8.518l26.521 27.731-26.521 27.731v8.518h18.144l25.582-26.749h60.274z" fill="#f0f0f0"/><path d="m12 27.751v8.518l26.521 27.731-26.521 27.731v8.518l36.25-35.119z" fill="#fed953"/><path d="m116 59.5h-62.411l-30.363-31.749h-11.226v1.284l33.44 34.965-33.44 34.965v1.284h11.226l30.363-31.749h62.411z" fill="#6fa44a"/><path d="m12 36.269 26.521 27.731-26.521 27.731z" fill="#191f1e"/><path d="m30.144 100.249 25.582-26.749h60.274v26.749z" fill="#0b55b1"/><path d="m116 26h-104a1.749 1.749 0 0 0 -1.75 1.75v72.5a1.749 1.749 0 0 0 1.75 1.75h88.813a1.75 1.75 0 1 0 0-3.5h-66.573l22.235-23.25h51.858a1.75 1.75 0 0 0 0-3.5h-52.606a1.75 1.75 0 0 0 -1.265.54l-25.062 26.21h-2.079l27.017-28.25h59.912v30a1.75 1.75 0 0 0 3.5 0v-72.5a1.749 1.749 0 0 0 -1.75-1.75zm-1.75 26.75h-57.775l-22.235-23.25h80.01zm-60.66 14a1.75 1.75 0 0 0 -1.265.54l-29.848 31.21h-8.727v-6.066l21.256-22.227a1.75 1.75 0 1 0 -2.529-2.42l-18.727 19.582v-53.969l29.268 30.6-25.364 26.521a1.751 1.751 0 0 0 2.53 2.42l26.516-27.731a1.749 1.749 0 0 0 0-2.42l-31.833-33.29h7.61l7.959 8.321a1.75 1.75 0 1 0 2.529-2.42l-5.644-5.9h2.079l25.062 26.209a1.75 1.75 0 0 0 1.265.54h58.523v10.5z"/><path d="m108.333 98.5h-.833a1.75 1.75 0 0 0 0 3.5h.833a1.75 1.75 0 0 0 0-3.5z"/><path d="m38.521 65.75a1.75 1.75 0 0 0 1.265-2.96l-20.11-21.027a1.751 1.751 0 1 0 -2.53 2.42l20.111 21.027a1.746 1.746 0 0 0 1.264.54z"/><path d="m37.08 39.706a1.749 1.749 0 1 0 -2.527 2.42l.527.551a1.749 1.749 0 0 0 2.527-2.42z"/><path d="m108.333 57.75h-53.995l-12.511-13.081a1.75 1.75 0 1 0 -2.529 2.42l13.027 13.621a1.75 1.75 0 0 0 1.265.54h54.743a1.75 1.75 0 0 0 0-3.5z"/></svg>