<svg id="Layer_1" height="512" viewBox="0 0 128 128" width="512" xmlns="http://www.w3.org/2000/svg" data-name="Layer 1"><path d="m12 27.751h104v72.497h-104z" fill="#fed953"/><path d="m12 27.751h104v17.866h-104z" fill="#d60a2e"/><path d="m12 82.617h104v17.866h-104z" fill="#d60a2e"/><g fill="#6fa44a"><path d="m40.542 53.632a1.751 1.751 0 0 0 -2.472-.112l-2.82 2.58v-1.287a1.75 1.75 0 0 0 -3.5 0v1.287l-2.82-2.58a1.75 1.75 0 0 0 -2.36 2.585l2.418 2.208h-.8a1.75 1.75 0 0 0 -1.75 1.75v10.625a1.75 1.75 0 0 0 1.257 1.678l3.6 1.059a7.8 7.8 0 0 0 4.415 0l3.6-1.059a1.749 1.749 0 0 0 1.256-1.678v-10.625a1.749 1.749 0 0 0 -1.75-1.75h-.8l2.418-2.208a1.75 1.75 0 0 0 .108-2.473z"/><path d="m22.344 58.313a1.749 1.749 0 0 0 -1.75 1.75v13.125a1.75 1.75 0 0 0 3.5 0v-13.125a1.75 1.75 0 0 0 -1.75-1.75z"/><path d="m44.656 58.313a1.75 1.75 0 0 0 -1.75 1.75v13.125a1.75 1.75 0 0 0 3.5 0v-13.125a1.749 1.749 0 0 0 -1.75-1.75z"/></g><path d="m30.25 98.5h-.625a1.75 1.75 0 0 0 0 3.5h.625a1.75 1.75 0 0 0 0-3.5z"/><path d="m116 26h-104a1.75 1.75 0 0 0 0 3.5h102.25v51.367h-100.5v-33.5h83.625a1.75 1.75 0 0 0 0-3.5h-83.625v-8.09a1.75 1.75 0 0 0 -3.5 0v64.472a1.751 1.751 0 0 0 1.75 1.751h10.344a1.75 1.75 0 0 0 0-3.5h-8.594v-14.133h100.5v14.133h-77.25a1.75 1.75 0 0 0 0 3.5h79a1.751 1.751 0 0 0 1.75-1.75v-72.5a1.751 1.751 0 0 0 -1.75-1.75z"/><path d="m106.25 47.367a1.75 1.75 0 0 0 0-3.5h-1.625a1.75 1.75 0 0 0 0 3.5z"/><path d="m40.542 53.632a1.751 1.751 0 0 0 -2.472-.112l-2.82 2.58v-1.287a1.75 1.75 0 0 0 -3.5 0v1.287l-2.82-2.58a1.75 1.75 0 0 0 -2.36 2.585l2.418 2.208h-.8a1.75 1.75 0 0 0 -1.75 1.75v10.625a1.75 1.75 0 0 0 1.257 1.678l3.6 1.059a7.8 7.8 0 0 0 4.415 0l3.6-1.059a1.749 1.749 0 0 0 1.256-1.678v-10.625a1.749 1.749 0 0 0 -1.75-1.75h-.8l2.418-2.208a1.75 1.75 0 0 0 .108-2.473zm-3.48 15.746-2.343.689a4.307 4.307 0 0 1 -2.439 0l-2.343-.689v-7.565h7.125z"/><path d="m20.594 60.063v13.125a1.75 1.75 0 0 0 3.5 0v-13.125a1.75 1.75 0 0 0 -3.5 0z"/><path d="m42.906 60.063v13.125a1.75 1.75 0 0 0 3.5 0v-13.125a1.75 1.75 0 0 0 -3.5 0z"/></svg>