<svg id="Layer_1" height="512" viewBox="0 0 128 128" width="512" xmlns="http://www.w3.org/2000/svg" data-name="Layer 1"><path d="m12 27.751h104v72.497h-104z" fill="#0b55b1"/><path d="m116 57.667h-60.917v-29.916h-12.666v29.916h-30.417v12.666h30.417v29.916h12.666v-29.916h60.917z" fill="#fed953"/><path d="m12 36.583a1.75 1.75 0 0 0 1.75-1.75v-.5a1.75 1.75 0 0 0 -3.5 0v.5a1.75 1.75 0 0 0 1.75 1.75z"/><path d="m116 26h-104a1.75 1.75 0 0 0 0 3.5h28.667v26.417h-20.417a1.75 1.75 0 0 0 0 3.5h22.167a1.751 1.751 0 0 0 1.75-1.75v-28.167h9.166v28.167a1.75 1.75 0 0 0 3.5 0v-28.167h57.417v26.417h-44.167a1.75 1.75 0 0 0 0 3.5h44.167v39.083h-57.417v-26.417h51.417a1.75 1.75 0 0 0 0-3.5h-53.167a1.751 1.751 0 0 0 -1.75 1.75v28.167h-39.583v-26.417h26.917v20.584a1.75 1.75 0 0 0 3.5 0v-22.334a1.751 1.751 0 0 0 -1.75-1.75h-28.667v-26.583a1.75 1.75 0 0 0 -3.5 0v58.249a1.751 1.751 0 0 0 1.75 1.751h104a1.751 1.751 0 0 0 1.75-1.75v-72.5a1.751 1.751 0 0 0 -1.75-1.75z"/><path d="m63.167 59.417a1.75 1.75 0 0 0 0-3.5h-1a1.75 1.75 0 0 0 0 3.5z"/></svg>