<svg id="Layer_1" height="512" viewBox="0 0 128 128" width="512" xmlns="http://www.w3.org/2000/svg" data-name="Layer 1"><path d="m12 27.751h104v72.497h-104z" fill="#d60a2e"/><path d="m85.667 55.833h-13.5v-13.5h-16.334v13.5h-13.5v16.334h13.5v13.5h16.334v-13.5h13.5z" fill="#f0f0f0"/><path d="m116 98.5h-102.25v-69h7.5a1.75 1.75 0 0 0 0-3.5h-9.25a1.75 1.75 0 0 0 -1.75 1.75v72.5a1.75 1.75 0 0 0 1.75 1.75h104a1.75 1.75 0 0 0 0-3.5z"/><path d="m116 87.5a1.749 1.749 0 0 0 -1.75 1.75v1.25a1.75 1.75 0 0 0 3.5 0v-1.25a1.749 1.749 0 0 0 -1.75-1.75z"/><path d="m116 26h-80.375a1.75 1.75 0 0 0 0 3.5h78.625v53.5a1.75 1.75 0 0 0 3.5 0v-55.249a1.75 1.75 0 0 0 -1.75-1.751z"/><path d="m28.281 29.5h.772a1.75 1.75 0 0 0 0-3.5h-.772a1.75 1.75 0 0 0 0 3.5z"/><path d="m49.25 57.583a1.75 1.75 0 0 0 0-3.5h-6.917a1.75 1.75 0 0 0 -1.75 1.75v16.334a1.75 1.75 0 0 0 1.75 1.75h11.75v11.75a1.75 1.75 0 0 0 1.75 1.75h16.334a1.75 1.75 0 0 0 1.75-1.75v-13.5a1.75 1.75 0 0 0 -3.5 0v11.75h-12.834v-11.75a1.749 1.749 0 0 0 -1.75-1.75h-11.75v-12.834z"/><path d="m72.167 40.583h-16.334a1.75 1.75 0 0 0 -1.75 1.75v13.5a1.75 1.75 0 0 0 3.5 0v-11.75h12.834v11.75a1.749 1.749 0 0 0 1.75 1.75h11.75v12.834h-4.084a1.75 1.75 0 0 0 0 3.5h5.834a1.75 1.75 0 0 0 1.75-1.75v-16.334a1.75 1.75 0 0 0 -1.75-1.75h-11.75v-11.75a1.75 1.75 0 0 0 -1.75-1.75z"/></svg>