<svg id="Layer_1" height="512" viewBox="0 0 128 128" width="512" xmlns="http://www.w3.org/2000/svg" data-name="Layer 1"><path d="m12 27.751h104v72.497h-104z" fill="#d60a2e"/><path d="m56.767 77.86a13.86 13.86 0 1 1 5.215-26.7 17.851 17.851 0 1 0 0 25.672 13.81 13.81 0 0 1 -5.215 1.028z" fill="#f0f0f0"/><path d="m77.783 59.066-6.178 2.57-4.133-5.28.526 6.685-6.29 2.284 6.518 1.672.231 6.581 3.617-5.401 6.318 1.533-4.28-5.005z" fill="#f0f0f0"/><path d="m116 98.5h-102.25v-70.749a1.75 1.75 0 0 0 -3.5 0v72.5a1.751 1.751 0 0 0 1.75 1.749h104a1.75 1.75 0 0 0 0-3.5z"/><path d="m116 89.625a1.75 1.75 0 0 0 -1.75 1.75v1.031a1.75 1.75 0 0 0 3.5 0v-1.031a1.75 1.75 0 0 0 -1.75-1.75z"/><path d="m116 26h-94.5a1.75 1.75 0 0 0 0 3.5h92.75v55.25a1.75 1.75 0 0 0 3.5 0v-57a1.75 1.75 0 0 0 -1.75-1.75z"/><path d="m37.327 53.571c.157-.184.318-.365.482-.541a1.75 1.75 0 0 0 -2.563-2.384q-.3.321-.584.656a1.75 1.75 0 1 0 2.665 2.269z"/><path d="m32.62 58.186a1.749 1.749 0 0 0 -2.1 1.3 19.621 19.621 0 0 0 19.08 24.114 19.5 19.5 0 0 0 13.6-5.5 1.75 1.75 0 0 0 -1.875-2.88 12.11 12.11 0 1 1 0-22.43 1.75 1.75 0 0 0 1.875-2.88 19.587 19.587 0 0 0 -22.484-3.383 1.75 1.75 0 1 0 1.584 3.114 16.138 16.138 0 0 1 11.967-1.051 15.612 15.612 0 0 0 0 30.82 16.106 16.106 0 0 1 -20.773-15.41 16.228 16.228 0 0 1 .428-3.709 1.75 1.75 0 0 0 -1.302-2.105z"/></svg>