<svg id="Layer_1" height="512" viewBox="0 0 128 128" width="512" xmlns="http://www.w3.org/2000/svg" data-name="Layer 1"><path d="m12 27.751h104v72.497h-104z" fill="#0b55b1"/><path d="m12 64h104v36.249h-104z" fill="#fed953"/><path d="m93 29.5h1.167a1.75 1.75 0 0 0 0-3.5h-1.167a1.75 1.75 0 0 0 0 3.5z"/><path d="m12 94.5a1.75 1.75 0 0 0 1.75-1.75v-63.25h71.375a1.75 1.75 0 0 0 0-3.5h-73.125a1.75 1.75 0 0 0 -1.75 1.75v65a1.75 1.75 0 0 0 1.75 1.75z"/><path d="m116 26h-13.333a1.75 1.75 0 0 0 0 3.5h11.583v32.75h-93.417a1.75 1.75 0 0 0 0 3.5h93.417v32.75h-102.25a1.75 1.75 0 0 0 0 3.5h104a1.75 1.75 0 0 0 1.75-1.75v-72.5a1.75 1.75 0 0 0 -1.75-1.75z"/></svg>