<svg id="Layer_1" height="512" viewBox="0 0 128 128" width="512" xmlns="http://www.w3.org/2000/svg" data-name="Layer 1"><path d="m12 27.751h104v72.497h-104z" fill="#0b55b1"/><path d="m116 27.751h-14.864l-37.136 25.887-37.136-25.887h-14.864v10.362l37.136 25.887-37.136 25.887v10.362h14.864l37.136-25.887 37.136 25.887h14.864v-10.362l-37.136-25.887 37.136-25.887z" fill="#f0f0f0"/><path d="m116 27.751h-.429l-51.571 35.95-51.571-35.95h-.429v4.706l48.41 33.746-48.41 33.747v.299h6.751l45.249-31.543 45.249 31.543h6.751v-.299l-48.41-33.747 48.41-33.746z" fill="#d60a2e"/><path d="m116 54.667h-42.667v-26.916h-18.666v26.916h-42.667v18.666h42.667v26.916h18.666v-26.916h42.667z" fill="#f0f0f0"/><path d="m59.667 95.249v-26.916h-42.667v-8.666h42.667v-26.916h8.666v26.916h42.667v8.666h-42.667v26.916z" fill="#d60a2e"/><path d="m116 26h-104a1.751 1.751 0 0 0 -1.75 1.75v72.5a1.751 1.751 0 0 0 1.75 1.75h104a1.751 1.751 0 0 0 1.75-1.75v-72.5a1.751 1.751 0 0 0 -1.75-1.75zm-14.314 72.5-26.6-18.545v-1.39l23.986 16.72a1.75 1.75 0 0 0 2-2.871l-24.862-17.331h1.058l33.59 23.417zm-52.4-13.881a1.751 1.751 0 0 0 -2.437-.434l-20.535 14.315h-1.992l28.6-19.934v19.934h-20.487l16.417-11.445a1.751 1.751 0 0 0 .435-2.437zm-32.144 13.881 33.59-23.416h1.058l-33.59 23.416zm9.172-69 26.6 18.545v4.871h-1.324l-33.59-23.416zm11.4 18.746-23.964-16.702v-.739l31.719 22.112h-9.169l-22.55-15.717v-1.39l21.959 15.308a1.75 1.75 0 1 0 2-2.871zm-7.535 4.67h-16.429v-11.45zm-16.429 22.167h16.426l-16.426 11.451zm0 15.718 22.55-15.718h8.314l-30.864 21.517zm40.917-19.218h-40.917v-15.166h40.917a1.751 1.751 0 0 0 1.75-1.75v-21.916a1.75 1.75 0 0 0 -3.5 0v11.028l-20.482-14.279h39.148v25.167a1.751 1.751 0 0 0 1.75 1.75h40.917v30.117l-16.426-11.451h13.176a1.75 1.75 0 0 0 0-3.5h-37.667a1.751 1.751 0 0 0 -1.75 1.75v25.167h-15.166v-25.167a1.751 1.751 0 0 0 -1.75-1.75zm20.416-42.083h20.482l-20.482 14.279zm39.167 7.7-22.55 15.717h-1.99l24.54-17.107zm0 4.267v11.45h-16.426zm-39.167 42.754 20.482 14.279h-20.482zm8.306-9.138h8.311l22.55 15.717v5.8zm30.861-43.539-30.66 21.373h-1.059l23.761-16.564a1.75 1.75 0 1 0 -2-2.871l-27.882 19.435h-1.327v-4.871l26.6-18.545h12.567z"/><path d="m86 66.583h-1.25a1.75 1.75 0 0 0 0 3.5h1.25a1.75 1.75 0 0 0 0-3.5z"/><path d="m59.667 61.417a1.751 1.751 0 0 0 1.75-1.75v-25.167h5.166v25.167a1.751 1.751 0 0 0 1.75 1.75h40.917v5.166h-17a1.75 1.75 0 0 0 0 3.5h18.75a1.75 1.75 0 0 0 1.75-1.75v-8.666a1.75 1.75 0 0 0 -1.75-1.75h-40.917v-25.166a1.75 1.75 0 0 0 -1.75-1.751h-8.666a1.75 1.75 0 0 0 -1.75 1.75v26.917a1.75 1.75 0 0 0 1.75 1.75z"/><path d="m57.917 95.249a1.75 1.75 0 0 0 1.75 1.751h8.666a1.75 1.75 0 0 0 1.75-1.75v-25.167h8.667a1.75 1.75 0 0 0 0-3.5h-10.417a1.751 1.751 0 0 0 -1.75 1.75v25.167h-5.166v-25.167a1.751 1.751 0 0 0 -1.75-1.75h-40.917v-5.166h35.917a1.75 1.75 0 0 0 0-3.5h-37.667a1.75 1.75 0 0 0 -1.75 1.75v8.666a1.75 1.75 0 0 0 1.75 1.75h40.917z"/></svg>