<svg id="Layer_1" height="512" viewBox="0 0 128 128" width="512" xmlns="http://www.w3.org/2000/svg" data-name="Layer 1"><path d="m12 27.751h104v72.497h-104z" fill="#d60a2e"/><path d="m85.167 59.248-16.417.377-4.75-15.756-4.75 15.756-16.417-.377 13.417 9.627-5.332 15.256 13.082-9.131 13.082 9.131-5.332-15.256z" fill="#fed953"/><path d="m116 98.5h-102.25v-70.749a1.75 1.75 0 0 0 -3.5 0v72.5a1.75 1.75 0 0 0 1.75 1.749h104a1.75 1.75 0 0 0 0-3.5z"/><path d="m116 89.875a1.75 1.75 0 0 0 -1.75 1.75v1a1.75 1.75 0 0 0 3.5 0v-1a1.75 1.75 0 0 0 -1.75-1.75z"/><path d="m116 26h-87a1.75 1.75 0 0 0 0 3.5h85.25v55.313a1.75 1.75 0 0 0 3.5 0v-57.062a1.75 1.75 0 0 0 -1.75-1.751z"/><path d="m20.25 29.5h1.25a1.75 1.75 0 0 0 0-3.5h-1.25a1.75 1.75 0 0 0 0 3.5z"/><path d="m41.411 58.228a1.749 1.749 0 0 0 .4 2.441l12.354 8.865-4.9 14.02a1.75 1.75 0 0 0 2.654 2.012l12.081-8.432 12.08 8.432a1.75 1.75 0 0 0 2.654-2.012l-5.334-15.254a1.75 1.75 0 0 0 -3.3 1.154l3.544 10.146-8.644-6.035a1.751 1.751 0 0 0 -2 0l-8.644 6.035 3.544-10.148a1.751 1.751 0 0 0 -.631-2l-13.415-9.626a1.749 1.749 0 0 0 -2.443.402z"/><path d="m76.18 65.7a1.75 1.75 0 0 0 2.442.4l7.565-5.429a1.749 1.749 0 0 0 -1.02-3.171h-.04l-15.086.347-4.365-14.483a1.751 1.751 0 0 0 -3.352 0l-4.365 14.481-5.668-.13a1.75 1.75 0 1 0 -.08 3.5l7 .161a1.717 1.717 0 0 0 1.716-1.245l3.073-10.199 3.074 10.2a1.75 1.75 0 0 0 1.676 1.245h.04l10.756-.248-2.965 2.127a1.75 1.75 0 0 0 -.401 2.444z"/></svg>