<?xml version="1.0" encoding="iso-8859-1"?>
<!-- Generator: Adobe Illustrator 19.0.0, SVG Export Plug-In . SVG Version: 6.00 Build 0)  -->
<svg version="1.1" id="Capa_1" xmlns="http://www.w3.org/2000/svg" xmlns:xlink="http://www.w3.org/1999/xlink" x="0px" y="0px"
	 viewBox="0 0 511.999 511.999" style="enable-background:new 0 0 511.999 511.999;" xml:space="preserve">
<g>
	<path style="fill:#FFB487;" d="M174.075,501.955l-13.087-62.372c-5.9-28.12-22.544-52.826-46.387-68.858L86.66,351.938
		c-8.325-5.597-19.507-4.17-26.159,3.339l0,0c-7.398,8.351-7.202,20.964,0.455,29.078c15.3,16.213,38.064,40.452,38.064,40.452
		l-12.413-13.202l-26.073-27.748c-8.371-8.909-13.031-20.673-13.031-32.898v-98.257c0-8.791-6.107-16.401-14.688-18.306l0,0
		C21.105,231.797,10,240.708,10,252.702v123.845c0,14.477,4.502,28.596,12.882,40.402l60.345,85.006"/>
	<path style="fill:#FFB487;" d="M337.925,501.955l13.087-62.372c5.9-28.12,22.544-52.826,46.387-68.858l27.941-18.787
		c8.325-5.597,19.507-4.17,26.159,3.339l0,0c7.398,8.351,7.202,20.964-0.455,29.078c-15.3,16.213-38.064,40.452-38.064,40.452
		l12.413-13.202l26.073-27.748c8.371-8.909,13.031-20.673,13.031-32.898v-98.257c0-8.791,6.107-16.401,14.688-18.306l0,0
		c11.709-2.599,22.814,6.312,22.814,18.306v123.845c0,14.477-4.502,28.596-12.882,40.402l-60.345,85.006"/>
</g>
<circle style="fill:#78D2FA;" cx="256" cy="190.91" r="180.96"/>
<g>
	<path style="fill:#A5DC69;" d="M406.255,162.407L406.255,162.407c-3.096-10.62-10.61-19.396-20.626-24.092l-35.211-16.509h-28.94
		c-7.555,0-15.007-1.759-21.765-5.138l0,0c-2.279-1.14-3.719-3.469-3.719-6.017l0,0c0-3.715-3.012-6.727-6.727-6.727h-20.524
		c-13.674,0-26.544,6.46-34.714,17.425l-7.985,10.716c-5.569,7.474-8.577,16.545-8.577,25.865l0,0
		c0,11.699,4.735,22.9,13.126,31.051l1.487,1.444c8.079,7.849,18.9,12.239,30.164,12.239h28.307l12.44,44.317l-3.803,3.803
		c-4.285,4.285-6.693,10.097-6.693,16.157l0,0c0,4.232,1.176,8.382,3.396,11.985l17.937,29.115
		c3.412,5.539,9.453,8.912,15.958,8.912l0,0c6.536,0,12.601-3.405,16.003-8.986l25.762-42.249c4.933-8.091,6.883-17.652,5.51-27.028
		l0,0c-1.622-11.084,1.405-22.345,8.366-31.122l15.91-20.06C406.95,180.435,408.783,171.077,406.255,162.407z"/>
	<path style="fill:#A5DC69;" d="M185.275,254.618l-18.578-10.321l-27.286-39.325H94.468l-17.883,9.629
		c6.603,50.494,34.023,94.434,73.363,122.938l11.131-20.211h8.768c9.784,0,17.716-7.932,17.716-17.716v-8.603
		c0-3.758,1.195-7.419,3.412-10.453C197.261,271.956,194.588,259.792,185.275,254.618z"/>
	<path style="fill:#A5DC69;" d="M132.514,72.929h-13.718c-23.665,27.495-39.202,62.18-42.896,100.333l18.084-4.233l39.846-30.91
		l14.137-6.468c10.309-4.717,16.92-15.012,16.92-26.348l0,0C164.887,87.423,150.393,72.929,132.514,72.929z"/>
	<path style="fill:#A5DC69;" d="M256,9.954c-4.36,0-8.682,0.164-12.966,0.467c0,0-22.1,41.028-13.823,41.028h52.441
		c19.889,0,38.214,10.785,47.869,28.174l22.338,40.232l34.061-21.44c3.468-2.183,5.572-5.994,5.572-10.092l0,0
		c0-4.398,2.388-8.23,5.931-10.298C364.264,36.538,313.24,9.954,256,9.954z"/>
</g>
<path d="M129.706,369.539c-3.044-2.518-6.25-4.91-9.525-7.113L92.24,343.639c-10.712-7.202-24.713-6.592-34.737,0.889v-91.826
	c0-13.583-9.261-25.126-22.522-28.068c-8.557-1.896-17.386,0.159-24.223,5.644C3.921,235.763,0,243.936,0,252.702v123.845
	c0,16.646,5.093,32.618,14.728,46.19l60.345,85.007c1.95,2.746,5.033,4.212,8.163,4.212c2.001,0,4.023-0.6,5.78-1.847
	c4.503-3.197,5.563-9.439,2.366-13.943l-60.345-85.007C23.816,400.989,20,389.02,20,376.547V252.702
	c0-2.668,1.193-5.156,3.274-6.825c2.081-1.67,4.77-2.298,7.373-1.718c4.036,0.896,6.855,4.408,6.855,8.543v98.257
	c0,14.384,5.276,28.088,14.86,38.759c0.424,0.509,39.26,41.819,39.368,41.934c1.968,2.096,4.627,3.154,7.292,3.154
	c2.454,0,4.914-0.898,6.844-2.711c4.026-3.78,4.225-10.109,0.444-14.135c-0.142-0.151-38.488-40.952-38.488-40.952
	c-0.054-0.058-0.104-0.118-0.158-0.176c-3.557-4.369-3.475-10.638,0.323-14.926c3.315-3.741,8.945-4.461,13.094-1.671l27.941,18.787
	c2.731,1.836,5.403,3.831,7.941,5.93c4.256,3.52,10.56,2.922,14.079-1.335C134.56,379.361,133.962,373.057,129.706,369.539z"/>
<path d="M157.863,403.211l-0.062-0.11l-0.007,0.004c-0.099-0.191-0.205-0.383-0.316-0.573c-2.79-4.766-8.916-6.369-13.681-3.58
	c-4.767,2.789-6.37,8.915-3.581,13.682l0.074,0.126c0.048,0.09,0.098,0.181,0.148,0.271c1.837,3.26,5.229,5.093,8.721,5.093
	c1.663,0,3.348-0.416,4.9-1.29C158.872,414.121,160.574,408.022,157.863,403.211z"/>
<path d="M172.461,445.563c-1.135-5.405-6.436-8.86-11.84-7.733c-5.405,1.135-8.868,6.436-7.734,11.841l11.401,54.338
	c0.989,4.713,5.146,7.948,9.777,7.948c0.68,0,1.372-0.07,2.063-0.215c5.405-1.135,8.868-6.436,7.734-11.841L172.461,445.563z"/>
<path d="M501.242,230.277c-6.836-5.485-15.664-7.541-24.223-5.644c-13.261,2.942-22.522,14.485-22.522,28.068v91.826
	c-10.023-7.482-24.024-8.092-34.738-0.889l-27.94,18.787c-26.155,17.586-44.123,44.259-50.595,75.104l-13.086,62.372
	c-1.134,5.405,2.329,10.706,7.734,11.841c0.692,0.146,1.383,0.215,2.063,0.215c4.631,0,8.788-3.235,9.777-7.948l13.086-62.372
	c5.396-25.716,20.375-47.952,42.181-62.613l27.939-18.787c4.149-2.789,9.78-2.071,13.094,1.671
	c3.799,4.288,3.881,10.557,0.324,14.926c-0.054,0.058-0.104,0.118-0.158,0.176c0,0-38.346,40.801-38.488,40.952
	c-3.781,4.025-3.582,10.354,0.444,14.135c4.025,3.782,10.354,3.583,14.135-0.443c0.108-0.115,38.947-41.429,39.373-41.94
	c9.581-10.67,14.855-24.373,14.855-38.753v-98.257c0-4.135,2.819-7.647,6.855-8.543c2.603-0.58,5.292,0.047,7.373,1.718
	c2.081,1.669,3.274,4.157,3.274,6.825v123.845c0,12.474-3.816,24.442-11.037,34.612l-60.345,85.007
	c-3.197,4.504-2.138,10.746,2.366,13.943c1.757,1.247,3.778,1.847,5.78,1.847c3.13,0,6.213-1.466,8.163-4.212l60.345-85.007
	c9.635-13.572,14.728-29.545,14.728-46.19V252.702C512,243.936,508.079,235.763,501.242,230.277z"/>
<path d="M357.635,341.01c-2.843-4.734-8.986-6.268-13.721-3.425c-56.859,34.143-126.936,31.888-180.848-3.134l3.922-7.122h2.859
	c15.282,0,27.715-12.434,27.715-27.716v-8.604c0-1.647,0.514-3.222,1.486-4.552c4.687-6.414,6.397-14.543,4.692-22.302
	s-6.666-14.422-13.61-18.279l-16.545-9.192l-25.96-37.413c-1.869-2.692-4.938-4.299-8.216-4.299H94.468
	c-1.655,0-3.284,0.411-4.741,1.195l-4.43,2.386c-0.255-5.746-0.217-11.501,0.103-17.244l10.863-2.543
	c1.401-0.328,2.714-0.954,3.851-1.836l38.931-30.2l13.083-5.986c13.826-6.325,22.759-20.236,22.759-35.441
	c0-20.261-14.298-37.238-33.333-41.392c24.296-21.921,53.419-35.616,83.75-41.109c-0.354,0.788-0.709,1.584-1.061,2.39
	c-7.311,16.749-8.646,24.764-5.102,30.625c2.132,3.527,5.896,5.633,10.069,5.633h52.44c16.247,0,31.239,8.823,39.126,23.027
	l15.174,27.329h-14.473c-5.356,0-10.719-1.136-15.62-3.296c-1.055-8.216-8.093-14.586-16.591-14.586h-20.524
	c-16.75,0-32.725,8.019-42.732,21.45l-7.984,10.716c-6.808,9.138-10.558,20.445-10.558,31.84c0,14.315,5.889,28.248,16.158,38.225
	l1.487,1.444c10.001,9.715,23.188,15.065,37.132,15.065h20.727l8.811,31.389c-5.993,6.164-9.288,14.273-9.288,22.89
	c0,6.088,1.688,12.046,4.881,17.23l17.938,29.115c5.193,8.431,14.571,13.667,24.472,13.667c9.955,0,19.358-5.279,24.542-13.779
	l25.762-42.249c6.135-10.062,8.573-22.023,6.867-33.682c-1.217-8.321,1.081-16.872,6.307-23.46l15.91-20.06
	c7.614-9.601,10.112-22.355,6.682-34.118v0.001c-3.899-13.373-13.369-24.435-25.981-30.349l-19.592-9.186l20.966-13.198
	c3.606-2.271,6.395-5.457,8.146-9.158c35.687,54.579,37.599,125.518,2.207,182.868c-2.9,4.7-1.441,10.861,3.259,13.762
	s10.861,1.441,13.761-3.258c22.193-35.963,31.844-79.03,27.176-121.269c-4.741-42.896-24.191-83.359-54.769-113.937
	c-74.455-74.455-195.603-74.455-270.058,0c-74.454,74.455-74.454,195.602,0,270.057c30.733,30.733,69.749,49.629,112.83,54.644
	c7.314,0.852,14.651,1.272,21.982,1.271c34.553-0.001,68.841-9.359,98.427-27.125C358.945,351.887,360.478,345.745,357.635,341.01z
	 M154.887,105.302c0,7.402-4.349,14.175-11.08,17.254l-14.137,6.469c-0.7,0.32-1.36,0.721-1.969,1.192L89.58,159.79l-1.686,0.394
	c5.026-27.722,16.905-54.434,35.655-77.372c0.475,0.069,0.957,0.117,1.451,0.117h7.514
	C144.851,82.929,154.887,92.966,154.887,105.302z M396.655,165.206L396.655,165.206c1.618,5.548,0.439,11.563-3.151,16.092
	l-15.91,20.06c-8.638,10.892-12.438,25.027-10.426,38.783c1.032,7.053-0.443,14.288-4.154,20.374l-25.761,42.249
	c-1.577,2.585-4.438,4.191-7.466,4.191c-3.012,0-5.865-1.593-7.444-4.157l-17.937-29.115c-1.25-2.028-1.91-4.358-1.91-6.74
	c0-3.433,1.336-6.659,3.764-9.087l3.804-3.804c2.556-2.556,3.533-6.293,2.556-9.772l-12.44-44.317
	c-1.211-4.315-5.146-7.298-9.628-7.298h-28.307c-8.711,0-16.949-3.342-23.196-9.411l-1.486-1.444
	c-6.415-6.232-10.094-14.936-10.094-23.879c0-7.118,2.342-14.182,6.596-19.891l7.984-10.716
	c6.252-8.391,16.231-13.399,26.695-13.399h17.569c0.987,5.02,4.223,9.335,8.929,11.688c8.104,4.052,17.176,6.193,26.237,6.193
	h26.712l33.193,15.563C388.797,150.844,394.363,157.345,396.655,165.206z M376.886,70.027c2.475,2.474,4.855,5.011,7.151,7.598
	c-1.668,3.095-2.545,6.707-2.545,10.697c0,0.665-0.337,1.274-0.899,1.629l-25.119,15.813l-17.21-30.996
	C326.852,54.216,305.16,41.45,281.653,41.45h-42.417c2.067-5.64,5.549-13.533,9.435-21.251
	C294.859,18.233,341.698,34.837,376.886,70.027z M87.603,220.027l9.386-5.055h37.188l24.304,35.025
	c0.873,1.257,2.021,2.297,3.359,3.04l18.578,10.321c2.647,1.471,3.51,3.82,3.789,5.09s0.48,3.764-1.306,6.208
	c-3.493,4.779-5.339,10.435-5.339,16.353v8.604c0,4.255-3.461,7.716-7.715,7.716h-8.769c-3.645,0-7.001,1.983-8.76,5.176
	l-5.492,9.972c-4.032-3.354-7.944-6.909-11.713-10.678C109.203,285.888,93.369,253.66,87.603,220.027z"/>
<path d="M377.822,310.847c-0.069,0.072-0.138,0.145-0.204,0.217c-0.069,0.066-0.139,0.134-0.208,0.203
	c-3.904,3.906-3.901,10.238,0.005,14.142c1.953,1.951,4.511,2.927,7.069,2.927c2.56,0,5.121-0.978,7.074-2.932l0.102-0.102
	c0.076-0.073,0.151-0.146,0.225-0.222c0.077-0.079,0.152-0.158,0.226-0.238l0.086-0.089c3.84-3.97,3.735-10.301-0.235-14.141
	C387.993,306.774,381.662,306.879,377.822,310.847z"/>
<g>
</g>
<g>
</g>
<g>
</g>
<g>
</g>
<g>
</g>
<g>
</g>
<g>
</g>
<g>
</g>
<g>
</g>
<g>
</g>
<g>
</g>
<g>
</g>
<g>
</g>
<g>
</g>
<g>
</g>
</svg>
