<svg height='100px' width='100px'  fill="#000000" xmlns="http://www.w3.org/2000/svg" xmlns:xlink="http://www.w3.org/1999/xlink" version="1.1" x="0px" y="0px" viewBox="0 0 128 128" style="enable-background:new 0 0 128 128;" xml:space="preserve"><g><path d="M90,67.0895386V62c0-0.2163086-0.0831299-0.4055786-0.199707-0.5690918   c1.6876221-2.0402222,8.2944336-10.9155273,8.2944336-24.8674316c0-19.3271484-21.4770508-25.3300781-29.300293-25.3300781   s-29.2998047,6.0029297-29.2998047,25.3300781c0,14.7382202,7.5192261,23.9734497,8.557373,25.178894   C48.0290527,61.8264771,48,61.9085693,48,62v5.4673462c-13.6446533,2.5119019-23.6673584,15.0109863-22.5524902,29.390564   l1.4967651,19.303772C27.0246582,117.1991577,27.8900146,118,28.930603,118h11.3522339H58h1h29.2286987   C99.1480713,118,108,109.1374512,108,98.204895V86.7950439C108,76.4612427,100.0881348,67.987854,90,67.0895386z M106,89.8557129   v8.3491821C106,108.0171509,98.027832,116,88.2286987,116L59,116.003479v-13.6459351v-0.2579346   C59,101.4931641,59.4936523,101,60.1000977,101h23.1762695c1.2216797,0,2.3208008-0.7851562,2.7998047-1.9990234   c0.7822266-1.984375,4.3496094-1.8310547,4.3984375-1.8271484c0.5419922,0.0253906,1.0244141-0.3828125,1.0600586-0.9345703   c0.0351562-0.5507812-0.3828125-1.0263672-0.934082-1.0615234c-0.2026367-0.0126953-5.0541992-0.2851562-6.3847656,3.0888672   C84.0761719,98.6210938,83.7558594,99,83.2763672,99H60.1000977C58.390625,99,57,100.390625,57,102.0996094v0.6126099   l-6.9942017,1.2402344c-4.0325317,0.7150269-7.5081177,3.0299072-9.7338867,6.2902832l-1.1571655-9.0513306   c-0.4902344-4.0273438-0.5112305-7.9287109-0.0625-11.5966797c1.4238281-11.6357422,5.9648438-13.6806641,6.0771484-13.7285156   c0.5092773-0.1953125,0.7700195-0.7636719,0.5825195-1.2773438c-0.1894531-0.5175781-0.7636719-0.7851562-1.2822266-0.5966797   c-0.234375,0.0859375-5.7578125,2.2451172-7.362793,15.3603516c-0.4682617,3.828125-0.4472656,7.8925781,0.0634766,12.0869141   l1.5238647,11.918396c-0.2279053,0.5999146-0.4255371,1.2155151-0.5766602,1.8510742   c-0.0646973,0.2720337-0.0632935,0.5383301-0.0316772,0.7970581l-9.107605,0.0010986l-1.4967651-19.303772   c-0.560791-7.232666,1.8424683-14.1464233,6.7670288-19.4675293C39.1235962,71.9248657,45.8129883,69,53.0443115,69h35.1843872   c6.0709839,0,11.4355469,3.0679932,14.6427002,7.7328491c-2.2390747,1.1535645-3.7723389,3.4849854-3.7723389,6.1771851   C99.0990601,86.7314453,102.1846313,89.8301392,106,89.8557129z M40.0735474,115.8986206   c-0.0531616-0.0672607-0.0700684-0.1436768-0.0502319-0.2270508c0.1690674-0.7111206,0.4014893-1.3949585,0.6801147-2.0532837   c1.6890259-3.9902344,5.2890015-6.9229736,9.6515503-7.6965942L57,104.7434082V116H40.982605h-0.6997681   C40.1971436,116,40.126709,115.9658813,40.0735474,115.8986206z M55.0838623,23.0099487   c4.6026611-0.921814,9.2738647-1.3826294,13.9442749-1.3826294c4.8446045-0.000061,9.6884155,0.4957275,14.4556274,1.4869995   c6.9725952,1.4498291,11.9705811,7.5939941,11.9705811,14.7156982v0.1694336   c0,7.3480835-5.3128052,13.6189575-12.5610352,14.8262329c-4.5860596,0.763855-9.2199097,1.145874-13.8539429,1.145874   c-4.4662476,0-8.9326782-0.3547974-13.3570557-1.0646362l-0.8981323-0.144043   c-7.2888794-1.1693726-12.6496582-7.4586792-12.6496582-14.8407593c0-7.163269,5.0551147-13.3311157,12.0788574-14.737854   L55.0838623,23.0099487z M50,67v-4h38v4H53.0443115H50z"></path><circle cx="63" cy="106" r="2"></circle><circle cx="54" cy="75" r="2"></circle><circle cx="54" cy="84" r="2"></circle><circle cx="54" cy="93" r="2"></circle><circle cx="63" cy="112" r="2"></circle><path d="M30.7994385,61.5113525c1.8330688-1.5383301,2.8637085-3.178833,2.2703857-4.6314697   c-0.3760376-0.9208984-1.5355225-1.9368286-4.8009644-1.7055664c-1.5036621-1.4564819-3.5479736-2.3579102-5.8015747-2.3579102   c-4.4976196,0-8.1657715,3.5769043-8.3340454,8.0340576c-2.7130127,2.213623-2.8377686,3.8096313-2.4476929,4.7637939   c0.3364258,0.8232422,1.2924805,1.75,3.890625,1.75c0.2783203,0,0.5751953-0.0107422,0.8916016-0.0332031   c0.1077881-0.0076294,0.2302856-0.0321655,0.3404541-0.0423584c1.489624,1.3779297,3.4745483,2.2279053,5.6590576,2.2279053   C26.9550171,69.5166016,30.6168823,65.9547119,30.7994385,61.5113525z M31.2182617,57.6357422   c0.0960083,0.2351685-0.1300049,0.729126-0.6955566,1.3683472c-0.1741333-0.6479492-0.416687-1.2678223-0.7329712-1.843689   C30.7160034,57.2387085,31.1539307,57.4783936,31.2182617,57.6357422z M22.4672852,54.8164062   c3.2914429,0,6.0050049,2.5182495,6.3181763,5.7296753c-1.2808838,0.9488525-3.0810547,2.0004883-5.4768677,2.9793091   c-2.0248413,0.8267822-4.0137939,1.3894653-5.7556152,1.6566162c-0.8963623-1.0949707-1.435791-2.4929199-1.435791-4.0150146   C16.1171875,57.6650391,18.9658203,54.8164062,22.4672852,54.8164062z M13.5371094,64.8583984   c-0.0722046-0.1769409,0.1055908-0.7296143,0.869812-1.5461426c0.1929321,0.7235107,0.4782715,1.40802,0.8469238,2.0406494   C14.0372925,65.3041382,13.5924072,64.9938965,13.5371094,64.8583984z M22.4672852,67.5166016   c-1.0391235,0-2.0178833-0.2557983-2.8845825-0.7001343c1.4356689-0.3389893,2.9521484-0.8147583,4.4817505-1.4395142   c1.5448608-0.6309814,3.0739746-1.3943481,4.4313965-2.2282104C27.6608276,65.6814575,25.2759399,67.5166016,22.4672852,67.5166016   z"></path><path d="M24.789978,20.3466797c1.0440063,0.6051636,1.914856,1.4760132,2.5200195,2.5200195   c0.4227905,0.7293701,1.4310913,0.7293701,1.8538818,0c0.6052246-1.0440063,1.4760742-1.914856,2.5200806-2.5200195   c0.7293701-0.4227905,0.7293701-1.4310913,0-1.8539429c-1.0440063-0.6051636-1.914856-1.4760132-2.5200806-2.5200195   c-0.4227905-0.7293701-1.4310913-0.7293701-1.8538818,0c-0.6051636,1.0440063-1.4760132,1.914856-2.5200195,2.5200195   C24.0606079,18.9155884,24.0606079,19.9238892,24.789978,20.3466797z"></path><path d="M111.7609253,60.1715088c-1.0440063-0.6052246-1.914856-1.4760742-2.5200806-2.5200806   c-0.4227905-0.7293091-1.4310913-0.7293091-1.8538818,0c-0.6051636,1.0440063-1.4760132,1.914856-2.5200195,2.5200806   c-0.7293701,0.4227905-0.7293701,1.4310913,0,1.8538818c1.0440063,0.6052246,1.914856,1.4760742,2.5200195,2.5200195   c0.4227905,0.7293701,1.4310913,0.7293701,1.8538818,0c0.6052246-1.0439453,1.4760742-1.9147949,2.5200806-2.5200195   C112.4902954,61.6026001,112.4902954,60.5942993,111.7609253,60.1715088z"></path><path d="M76.9163208,72H62.0836792C60.9329224,72,60,72.9328613,60,74.0836792v8.8326416   C60,84.0670776,60.9329224,85,62.0836792,85h14.8326416C78.0670776,85,79,84.0670776,79,82.9163208v-8.8326416   C79,72.9328613,78.0670776,72,76.9163208,72z M77,82.9163208C77,82.9624634,76.9624634,83,76.9163208,83H62.0836792   C62.0375366,83,62,82.9624634,62,82.9163208v-8.8326416C62,74.0375366,62.0375366,74,62.0836792,74h14.8326416   C76.9624634,74,77,74.0375366,77,74.0836792V82.9163208z"></path><path d="M57.2037964,51.0637817c0.3773193,0.0605469,0.7564697,0.1037598,1.1344604,0.1584473   c0.7020874,0.1016235,1.4040527,0.2022095,2.1081543,0.2837524c0.005249,0.0006104,0.0105591,0.0015259,0.0158081,0.0021362   c-0.0003052-0.0001831-0.0006714-0.0004883-0.0009766-0.0006714C55.9853516,48.6677856,53,43.6815186,53,38   c0-1.5843506,0.239624-3.1124268,0.6705322-4.5586548c7.3948975-0.2229614,11.7508545-2.8919678,14.2664185-5.5778198   c2.3253784,1.5783691,6.8346558,3.2391357,15.5015259,3.288147C84.4289551,33.2311401,85,35.5474243,85,38   c0,5.6787109-2.9824829,10.6630859-7.4545288,13.503418c0.7053833-0.0812988,1.4090576-0.1767578,2.1124268-0.2783203   c0.5332642-0.0769653,1.0675049-0.1445312,1.5994263-0.2331543c0.0797729-0.0133057,0.1559448-0.0355225,0.2352295-0.0501709   C84.8829956,47.668396,87,43.0849609,87,38c0-5.2717285-2.2853394-9.9935913-5.8970947-13.2852783   c-0.0470581-0.0428467-0.0882568-0.0917358-0.1357422-0.1340942c-0.6895752-0.1339722-1.3795166-0.2660522-2.0722046-0.3766479   c-0.5068359-0.0808716-1.015686-0.1417847-1.5238647-0.2102051c-0.2860107-0.0384521-0.5719604-0.0772095-0.8583374-0.1116943   c-1.9044189-0.2296143-3.8156738-0.3688354-5.7300415-0.4232178c-1.2838745-0.036438-2.5679932-0.0377808-3.8518066,0.0046387   c-1.8213501,0.0600586-3.6392822,0.2036133-5.4516602,0.4224243c-0.104126,0.0125732-0.208313,0.0252075-0.312439,0.0383301   c-0.6934204,0.0872192-1.3858032,0.180481-2.0767822,0.2910156c-0.6837158,0.109314-1.3668213,0.2245483-2.0475464,0.3566284   c-0.0541382,0.0482788-0.1011963,0.1038818-0.1547852,0.152771C53.2817993,28.0158691,51,32.7332153,51,38   c0,5.0916138,2.1229858,9.6800537,5.5211792,12.9542847L57.2037964,51.0637817z"></path></g></svg>