<svg id="Layer_1" height="512" viewBox="0 0 128 128" width="512" xmlns="http://www.w3.org/2000/svg" data-name="Layer 1"><path d="m12 27.751h104v72.497h-104z" fill="#d60a2e"/><path d="m12 27.751h104v10.357h-104z" fill="#f0f0f0"/><path d="m12 48.465h104v10.357h-104z" fill="#f0f0f0"/><path d="m12 69.178h104v10.357h-104z" fill="#f0f0f0"/><path d="m12 89.892h104v10.357h-104z" fill="#f0f0f0"/><path d="m12 27.751h48.333v31.07h-48.333z" fill="#0b55b1"/><g fill="#f0f0f0"><path d="m18.591 31.379.783 1.587 1.751.255-1.267 1.235.299 1.744-1.566-.824-1.566.824.299-1.744-1.267-1.235 1.751-.255z"/><path d="m25.621 31.379.784 1.587 1.751.255-1.268 1.235.3 1.744-1.567-.824-1.566.824.299-1.744-1.267-1.235 1.751-.255z"/><path d="m32.652 31.379.783 1.587 1.751.255-1.267 1.235.299 1.744-1.566-.824-1.567.824.299-1.744-1.267-1.235 1.751-.255z"/><path d="m39.682 31.379.783 1.587 1.751.255-1.267 1.235.299 1.744-1.566-.824-1.566.824.299-1.744-1.267-1.235 1.751-.255z"/><path d="m46.712 31.379.783 1.587 1.751.255-1.267 1.235.299 1.744-1.566-.824-1.566.824.299-1.744-1.267-1.235 1.751-.255z"/><path d="m53.742 31.379.783 1.587 1.751.255-1.267 1.235.299 1.744-1.566-.824-1.566.824.299-1.744-1.267-1.235 1.751-.255z"/><path d="m18.591 37.711.783 1.586 1.751.255-1.267 1.235.299 1.744-1.566-.823-1.566.823.299-1.744-1.267-1.235 1.751-.255z"/><path d="m25.621 37.711.784 1.586 1.751.255-1.268 1.235.3 1.744-1.567-.823-1.566.823.299-1.744-1.267-1.235 1.751-.255z"/><path d="m32.652 37.711.783 1.586 1.751.255-1.267 1.235.299 1.744-1.566-.823-1.567.823.299-1.744-1.267-1.235 1.751-.255z"/><path d="m39.682 37.711.783 1.586 1.751.255-1.267 1.235.299 1.744-1.566-.823-1.566.823.299-1.744-1.267-1.235 1.751-.255z"/><path d="m46.712 37.711.783 1.586 1.751.255-1.267 1.235.299 1.744-1.566-.823-1.566.823.299-1.744-1.267-1.235 1.751-.255z"/><path d="m53.742 37.711.783 1.586 1.751.255-1.267 1.235.299 1.744-1.566-.823-1.566.823.299-1.744-1.267-1.235 1.751-.255z"/><path d="m18.591 44.042.783 1.587 1.751.254-1.267 1.235.299 1.744-1.566-.823-1.566.823.299-1.744-1.267-1.235 1.751-.254z"/><path d="m25.621 44.042.784 1.587 1.751.254-1.268 1.235.3 1.744-1.567-.823-1.566.823.299-1.744-1.267-1.235 1.751-.254z"/><path d="m32.652 44.042.783 1.587 1.751.254-1.267 1.235.299 1.744-1.566-.823-1.567.823.299-1.744-1.267-1.235 1.751-.254z"/><path d="m39.682 44.042.783 1.587 1.751.254-1.267 1.235.299 1.744-1.566-.823-1.566.823.299-1.744-1.267-1.235 1.751-.254z"/><path d="m46.712 44.042.783 1.587 1.751.254-1.267 1.235.299 1.744-1.566-.823-1.566.823.299-1.744-1.267-1.235 1.751-.254z"/><path d="m53.742 44.042.783 1.587 1.751.254-1.267 1.235.299 1.744-1.566-.823-1.566.823.299-1.744-1.267-1.235 1.751-.254z"/><path d="m18.591 50.373.783 1.587 1.751.254-1.267 1.235.299 1.744-1.566-.823-1.566.823.299-1.744-1.267-1.235 1.751-.254z"/><path d="m25.621 50.373.784 1.587 1.751.254-1.268 1.235.3 1.744-1.567-.823-1.566.823.299-1.744-1.267-1.235 1.751-.254z"/><path d="m32.652 50.373.783 1.587 1.751.254-1.267 1.235.299 1.744-1.566-.823-1.567.823.299-1.744-1.267-1.235 1.751-.254z"/><path d="m39.682 50.373.783 1.587 1.751.254-1.267 1.235.299 1.744-1.566-.823-1.566.823.299-1.744-1.267-1.235 1.751-.254z"/><path d="m46.712 50.373.783 1.587 1.751.254-1.267 1.235.299 1.744-1.566-.823-1.566.823.299-1.744-1.267-1.235 1.751-.254z"/><path d="m53.742 50.373.783 1.587 1.751.254-1.267 1.235.299 1.744-1.566-.823-1.566.823.299-1.744-1.267-1.235 1.751-.254z"/></g><path d="m116 26h-104a1.751 1.751 0 0 0 -1.75 1.75v72.5a1.751 1.751 0 0 0 1.75 1.75h68.417a1.75 1.75 0 0 0 0-3.5h-66.667v-6.858h100.5v6.858h-18.583a1.75 1.75 0 0 0 0 3.5h20.333a1.75 1.75 0 0 0 1.75-1.75v-72.5a1.75 1.75 0 0 0 -1.75-1.75zm-1.75 10.357h-47.083a1.75 1.75 0 0 0 0 3.5h47.083v6.857h-52.167v-17.214h52.167zm-55.667-6.857v27.572h-44.833v-27.572zm-44.833 58.642v-6.857h93.917a1.75 1.75 0 0 0 0-3.5h-93.917v-6.857h6.25a1.75 1.75 0 0 0 0-3.5h-6.25v-6.856h93.917a1.75 1.75 0 0 0 0-3.5h-45.584v-6.857h52.167v17.213h-79.064a1.75 1.75 0 0 0 0 3.5h79.064v17.214z"/><path d="m88.833 98.5h-1.166a1.75 1.75 0 0 0 0 3.5h1.166a1.75 1.75 0 0 0 0-3.5z"/><path d="m27.833 67.428h-1.212a1.75 1.75 0 1 0 0 3.5h1.212a1.75 1.75 0 0 0 0-3.5z"/></svg>